<svg width="636" height="148" viewBox="0 0 636 148" fill="none" xmlns="http://www.w3.org/2000/svg" class="h-[27px] w-auto object-contain md:h-[80px] md:w-[200px]"><path d="M517.105 5.63698C517.065 3.13698 514.895 1.11697 512.225 1.11697C509.555 1.11697 507.385 3.13698 507.345 5.63698V69.317V69.547C507.385 72.047 509.545 74.057 512.225 74.057C514.895 74.057 517.065 72.037 517.105 69.547V69.317H517.115V6.91698H517.105V5.63698ZM488.975 34.847C498.295 31.317 497.615 20.477 497.615 20.477C497.615 0.956974 476.325 1.12698 476.325 1.12698H434.765H433.875C431.525 1.15698 429.625 3.19698 429.625 5.71698C429.625 8.23698 431.525 10.277 433.875 10.307H434.955C440.945 10.307 477.685 10.307 477.685 10.307C488.405 10.307 488.455 20.407 488.455 20.407C488.455 30.347 478.405 30.497 478.405 30.497H451.405H450.745C448.275 30.527 446.275 32.677 446.275 35.327C446.275 37.967 448.275 40.117 450.745 40.157H451.555V40.177H476.845C490.315 40.177 490.315 52.587 490.315 52.587C490.315 64.377 478.965 64.547 478.965 64.547H460.825C452.485 64.547 448.925 56.777 448.925 56.777L434.125 26.847C425.005 7.06698 409.695 0.906982 395.395 0.906982C383.445 0.906982 372.575 6.32698 365.605 15.277C364.595 16.507 364.835 17.897 365.755 18.467C366.915 19.177 367.845 18.967 368.965 17.547C375.185 9.69698 384.805 4.94698 395.385 4.94698C408.155 4.94698 420.265 10.957 428.005 29.077L428.015 29.197L440.765 59.477C440.765 59.477 445.535 74.077 462.705 74.077H479.155V74.087C500.115 74.087 499.845 52.967 499.845 52.967C499.865 39.097 488.975 34.847 488.975 34.847ZM428.555 48.497C427.515 48.077 426.345 48.587 425.925 49.627C420.875 62.307 408.625 70.507 394.715 70.507C381.945 70.507 370.465 63.557 364.755 52.367L362.815 47.867L345.245 3.82698C344.275 1.68698 342.275 0.926987 340.715 0.926987C339.115 0.926987 337.455 1.40697 336.205 3.47697L314.275 39.877L291.285 3.91698C289.735 1.57698 288.585 0.926987 286.055 0.926987C284.045 0.926987 282.265 2.06698 281.395 3.91698L256.855 62.177L255.635 65.067C255.625 65.087 255.615 65.107 255.605 65.127C255.595 65.147 255.585 65.177 255.575 65.207L255.495 65.387H255.505C254.645 67.807 255.925 70.567 258.475 71.657C261.125 72.787 264.125 71.687 265.175 69.207C265.185 69.187 265.195 69.157 265.205 69.127L265.565 68.297L287.345 17.347L309.855 52.687C311.165 54.667 312.395 55.677 314.455 55.677C316.485 55.677 317.665 54.877 319.015 52.647L340.175 17.277L352.345 42.807L358.555 54.217C364.965 66.767 378.085 74.847 394.725 74.847C410.305 74.847 424.025 65.357 429.695 51.127C430.105 50.087 429.595 48.907 428.555 48.497ZM631.035 64.437H618.475H594.235C588.395 64.437 586.125 62.857 586.125 59.907C586.125 59.537 586.125 40.657 586.125 40.657H605.835H618.665C621.185 40.627 623.205 38.437 623.205 35.747C623.205 33.057 621.175 30.867 618.665 30.837H605.835H586.125V14.237C586.125 11.487 587.615 10.447 590.195 10.447C590.295 10.447 590.445 10.467 590.545 10.467H602.755V10.457H608.365C610.755 10.427 612.675 8.35698 612.675 5.79698C612.675 3.24698 610.755 1.17697 608.365 1.14697H596.205V1.15698H590.695C589.385 1.08698 583.995 0.876982 580.175 4.29698C578.455 5.83698 576.405 8.64698 576.405 13.337V60.777C576.395 61.117 576.365 65.457 580.015 69.127C583.175 72.287 588.065 74.067 594.225 74.067H618.465V74.077H631.025C633.495 74.047 635.475 71.897 635.475 69.267C635.485 66.617 633.495 64.477 631.035 64.437ZM566.695 64.357H560.565V64.347H544.705C541.375 64.347 538.765 63.907 537.385 62.577C535.775 61.027 535.855 58.727 535.855 58.697L535.865 58.547V9.46698V5.67699C535.835 3.15699 533.645 1.12698 530.945 1.12698C528.245 1.12698 526.065 3.15699 526.025 5.67699V10.217C526.025 10.217 526.025 10.267 526.025 10.357V18.527C526.025 32.437 526.035 58.917 526.035 58.837C525.985 59.437 525.685 64.837 530.055 69.177C533.315 72.417 538.085 74.057 544.235 74.057H554.015H566.695C569.185 74.027 571.195 71.867 571.195 69.197C571.195 66.527 569.185 64.387 566.695 64.357Z" fill="white"></path><path d="M422.916 48.7771L423.056 48.4071C423.076 48.3371 423.096 48.2971 423.106 48.2271L422.916 48.7771ZM399.476 31.9271C399.226 32.0271 399.076 32.0971 398.866 32.2371C398.886 32.2371 398.916 32.2471 398.926 32.2471C399.276 32.3071 399.276 32.3071 400.686 31.7771C400.716 31.7671 400.766 31.7571 400.796 31.7271C400.176 31.7671 399.856 31.8071 399.476 31.9271ZM384.496 43.5371L384.536 43.5271C383.866 43.8971 382.976 44.3971 382.306 44.7871C382.956 44.3971 383.836 43.8971 384.496 43.5371ZM396.986 29.8971C396.936 29.9171 396.886 29.9371 396.816 29.9371H396.806C396.866 29.9171 396.926 29.9071 396.986 29.8971ZM403.386 28.4771C403.346 28.4871 403.296 28.4971 403.246 28.5071C403.166 28.5271 403.086 28.5371 403.006 28.5371C403.126 28.5171 403.256 28.4971 403.386 28.4771ZM404.136 28.3771C404.066 28.3771 403.986 28.3771 403.916 28.3771C404.996 28.1871 405.966 28.0271 406.836 27.9271C406.586 28.0071 406.336 28.0971 406.096 28.1771C406.016 28.1971 405.796 28.2071 405.706 28.2571C405.696 28.2971 405.656 28.3271 405.606 28.3271L405.476 28.3671C405.216 28.4071 404.946 28.3771 404.676 28.3771C404.536 28.3771 404.396 28.3671 404.256 28.3671C404.216 28.3771 404.176 28.3771 404.136 28.3771ZM383.676 16.7171C379.956 18.0771 375.316 20.4671 371.396 24.0271C370.276 25.0471 369.216 26.0071 367.396 26.8271V26.8171C367.206 27.2571 366.956 27.8771 366.766 28.3171C366.416 29.2571 366.236 29.7571 366.056 30.3871C366.056 30.4271 366.076 30.4971 366.096 30.5371C366.386 30.5671 366.916 30.2571 368.916 29.0471C372.536 26.8371 374.216 25.8471 377.506 24.2871C377.246 25.2471 376.816 25.8171 375.736 26.6771C375.436 26.8871 375.046 27.1571 374.726 27.3371C373.556 28.0071 372.316 28.5671 371.136 29.2371C369.746 30.0271 368.416 30.9171 367.026 31.6971C366.896 31.7671 366.726 31.8571 366.596 31.9271C366.046 32.1871 365.726 32.0471 365.746 31.5371C365.746 31.5071 365.756 31.4771 365.756 31.4371C365.686 31.7171 365.616 32.0071 365.526 32.3571C365.006 34.6871 364.896 36.6871 364.816 38.2771C364.816 43.2471 365.796 46.1271 365.846 46.2371C365.856 46.2971 365.886 46.3471 365.906 46.3971C366.006 46.4171 366.136 46.4371 366.236 46.4671C366.536 47.8371 366.566 47.9871 366.796 48.6171C367.396 49.0471 367.156 49.8071 367.526 50.3271C367.706 50.2571 367.966 50.2071 368.176 50.2071L367.876 50.3071C368.166 50.4271 368.586 50.5171 368.886 50.5871C368.846 51.6971 368.846 51.6971 368.996 51.9571C369.086 51.8971 369.206 51.8171 369.296 51.7571C370.996 52.1271 370.996 52.1271 371.866 51.4071L372.576 50.7971C371.856 51.6371 372.096 52.1171 372.156 52.7271L372.846 53.7471C373.366 53.8171 372.436 52.3171 382.766 45.1371L382.756 45.1271C387.356 42.5271 391.726 39.5171 396.286 36.8471C392.856 37.8671 389.896 39.8571 386.646 41.2471C385.596 41.8571 384.646 42.4171 383.776 42.9271C383.756 42.9071 383.736 42.8771 383.716 42.8671C383.696 42.8271 383.576 42.5571 383.496 42.5271C383.446 42.5171 383.406 42.5171 383.366 42.5171C383.306 42.5171 383.256 42.5171 383.196 42.4971C383.006 42.4271 382.676 42.3771 382.476 42.4271C382.426 42.4371 382.346 42.4871 382.306 42.5171C382.206 42.5671 382.146 42.5971 382.056 42.6471C381.956 42.6771 381.886 42.7471 381.786 42.7671C381.676 42.7971 381.546 42.7871 381.426 42.7671C381.356 42.7671 381.296 42.7671 381.246 42.7671C381.206 42.7671 380.946 42.7871 380.916 42.7671C380.846 42.6871 380.956 42.5171 380.976 42.4571C381.006 42.3971 381.026 42.3171 381.036 42.2471C381.046 42.1971 381.076 42.1771 381.126 42.1671C381.166 42.1171 381.166 42.0971 381.196 42.0271C381.276 41.8471 381.496 41.6771 381.666 41.5671C381.876 41.4071 382.126 41.2571 382.346 41.1071C382.586 40.9571 382.856 40.7271 383.136 40.6471C383.226 40.6171 383.346 40.6171 383.436 40.5971C383.566 40.5571 383.556 40.5171 383.616 40.4071C383.646 40.3471 383.686 40.3371 383.666 40.2671C383.666 40.2371 383.306 40.0971 383.256 40.0771C383.266 40.0571 383.286 40.0471 383.296 40.0471C383.276 40.0671 383.256 40.0671 383.236 40.0771C383.126 40.0571 383.166 40.0571 383.066 40.0971C382.946 40.1471 382.836 40.1871 382.726 40.2671C382.596 40.3671 382.456 40.4171 382.326 40.4971C382.226 40.5771 382.176 40.6571 382.126 40.7471C381.736 40.9871 381.366 41.2171 380.996 41.4671C380.976 41.4771 380.946 41.4871 380.916 41.4871C380.826 41.5071 380.746 41.4971 380.666 41.5271C380.416 41.5771 380.156 41.6771 379.916 41.7471C379.746 41.7871 379.506 41.8171 379.366 41.9471C379.306 41.9971 379.256 42.0571 379.196 42.1171C379.086 42.2371 378.916 42.3571 378.776 42.4371C378.606 42.5271 378.516 42.5071 378.336 42.5071C378.306 42.5071 378.266 42.5071 378.226 42.5071C378.156 42.5171 378.086 42.5271 378.026 42.5071C378.006 42.5071 377.996 42.5071 377.976 42.5071C377.956 42.5071 377.956 42.5071 377.916 42.4571C377.916 42.4271 377.916 42.3471 377.936 42.3171C377.996 42.2271 378.116 42.1871 378.146 42.0571C378.056 41.9571 377.676 42.0171 377.546 42.0571C377.256 42.1371 376.996 42.2371 376.726 42.3571C376.506 42.4671 376.276 42.4971 376.056 42.6071C375.756 42.7471 375.586 42.6471 375.276 42.5871C375.276 42.4771 375.276 42.4271 375.316 42.3571C375.356 42.2871 375.446 42.2271 375.486 42.1671C375.506 42.1471 375.516 42.1071 375.526 42.0871C375.636 41.9771 375.746 41.8471 375.856 41.7371C376.076 41.5171 376.406 41.3471 376.646 41.1471C376.936 40.8871 377.206 40.6271 377.476 40.3471C377.526 40.2971 377.576 40.2671 377.626 40.2071C377.666 40.2171 377.696 40.2071 377.726 40.1671C377.776 40.1271 377.766 40.0471 377.816 39.9871C377.846 39.9771 377.866 39.9571 377.886 39.9271C378.016 39.8071 378.146 39.7171 378.286 39.6271C378.356 39.5971 378.406 39.5471 378.436 39.4971C378.456 39.4371 378.456 39.3071 378.426 39.2571C378.336 39.2571 378.286 39.3971 378.236 39.4371C378.126 39.5571 377.966 39.6071 377.826 39.6871C377.456 39.8571 376.986 40.0571 376.566 40.0671C376.446 40.0771 376.326 40.0771 376.196 40.0671C376.126 40.0571 376.056 40.0571 375.986 40.0571C375.976 40.0571 375.676 40.0771 375.646 40.0571C375.576 39.9571 375.786 39.6871 375.826 39.6271C375.906 39.5071 375.996 39.3971 376.086 39.2871C376.126 39.2371 376.166 39.1671 376.196 39.1071C376.246 39.0571 376.206 39.0871 376.296 39.0371C376.586 38.8671 376.856 38.6971 377.126 38.5271C377.186 38.4771 377.246 38.4271 377.306 38.4271C377.366 38.4071 377.416 38.4271 377.466 38.3971C377.536 38.3571 377.606 38.2771 377.666 38.2371C377.976 38.0371 378.366 37.8971 378.696 37.7171C379.156 37.4671 379.536 37.1171 380.016 36.8971C380.166 36.8171 380.316 36.7471 380.466 36.6871C380.576 36.6471 380.666 36.6371 380.766 36.5771C380.976 36.4071 381.206 36.2971 381.446 36.1771C381.686 36.0671 381.956 35.9771 382.196 35.8471C382.266 35.8071 382.316 35.7471 382.376 35.7071C382.436 35.6871 382.506 35.6671 382.566 35.6571C382.676 35.5971 382.796 35.5371 382.896 35.4771C382.996 35.4271 383.166 35.3571 383.266 35.3171C383.396 35.2671 383.496 35.2271 383.606 35.1571C383.726 35.1071 383.776 35.0671 383.826 34.9471C383.846 34.8871 383.906 34.7571 383.846 34.6971C383.656 34.6771 383.436 34.7971 383.256 34.8771C383.066 34.9571 382.876 35.0071 382.706 35.0871C382.606 35.1271 382.526 35.1871 382.436 35.2471C382.386 35.2671 382.336 35.2571 382.296 35.2571C382.266 35.2571 382.246 35.2571 382.216 35.2571C382.136 35.2571 382.056 35.2771 381.976 35.3171C381.856 35.3371 381.736 35.3771 381.626 35.4171C381.396 35.4971 381.156 35.6271 380.946 35.7671C380.676 35.9071 380.426 36.0871 380.146 36.2071C379.816 36.3671 379.466 36.5571 379.096 36.6571C378.816 36.7371 378.546 36.8271 378.286 36.9171C378.116 36.9771 377.936 37.0271 377.776 37.0871C377.686 37.1271 377.676 37.1471 377.616 37.2071C377.526 37.2871 377.416 37.3271 377.296 37.3671C376.966 37.4971 376.646 37.6271 376.316 37.7471C376.206 37.7671 376.126 37.8371 376.016 37.8471C375.876 37.8671 375.726 37.8571 375.576 37.8471C375.486 37.8471 375.396 37.8371 375.316 37.8471C375.116 37.8371 374.996 37.8171 374.806 37.7371C374.796 37.7271 374.736 37.7171 374.676 37.6771C375.546 37.0671 376.436 36.4971 377.346 35.9371C378.336 35.3371 379.346 34.7671 380.376 34.2371C381.466 33.6471 382.576 33.0971 383.696 32.5771C384.856 32.0271 386.036 31.5071 387.216 31.0071C388.426 30.4971 389.636 30.0271 390.876 29.5571C392.096 29.0971 393.336 28.6571 394.576 28.2471C395.786 27.8671 397.016 27.4771 398.256 27.1271C399.426 26.7971 400.616 26.4871 401.816 26.2071C402.936 25.9471 404.056 25.7071 405.196 25.5171C405.716 25.4271 406.226 25.3471 406.746 25.2771C406.876 25.2571 407.006 25.2471 407.136 25.2171C407.226 25.2071 407.306 25.1671 407.376 25.1371L407.286 25.1971C407.536 25.1671 407.776 25.1371 408.016 25.1071C408.236 25.1171 408.466 25.1171 408.686 25.1271C408.786 25.1271 409.296 25.0771 409.306 25.2571C409.326 25.3771 409.176 25.3571 409.096 25.3871C408.996 25.4171 408.906 25.4771 408.806 25.5171C409.076 25.5071 409.336 25.5071 409.606 25.5071C409.746 25.5071 409.886 25.5071 410.026 25.5071C410.076 25.5071 410.276 25.4771 410.286 25.5571C410.276 25.6071 410.256 25.6171 410.196 25.6171C410.076 25.7071 409.946 25.7971 409.826 25.8771C409.686 25.9671 409.576 25.9971 409.406 26.0371C409.116 26.1171 408.826 26.2071 408.536 26.2771C408.106 26.3771 407.656 26.4571 407.226 26.4971C407.116 26.5071 406.976 26.4771 407.026 26.6471C407.116 26.6671 407.206 26.6671 407.296 26.6571C407.646 26.6571 407.996 26.6671 408.356 26.6671C408.536 26.6671 408.726 26.6871 408.906 26.6471C409.036 26.6171 409.146 26.5971 409.286 26.6171C409.436 26.6371 409.596 26.6771 409.746 26.7171C407.906 26.8971 405.916 27.1871 404.046 27.6871C402.516 28.1071 402.216 28.1371 401.466 28.0871C401.586 27.9171 401.766 27.7071 401.906 27.5571C400.976 27.4171 395.386 29.3471 395.006 30.3371C395.026 30.3371 395.036 30.3371 395.046 30.3271C394.986 30.4771 395.076 30.5271 395.206 30.5671C395.566 30.6471 395.936 30.6771 396.316 30.6571C396.766 30.6771 397.206 30.6771 397.646 30.6671C397.986 30.6771 398.326 30.6771 398.666 30.6771C399.296 30.6771 399.936 30.7271 400.556 30.5871C401.066 30.4671 401.576 30.2671 402.076 30.1071C402.566 29.9571 403.056 29.7671 403.556 29.6371C403.666 29.5971 403.786 29.5671 403.906 29.5371C403.956 29.5271 404.086 29.4371 404.146 29.4371C404.266 29.4371 404.286 29.4971 404.236 29.5971C404.136 29.7771 403.566 29.8971 403.416 29.9471C403.166 30.0371 402.896 30.1271 402.656 30.2271C402.666 30.4571 403.006 30.4171 403.266 30.3871C403.366 30.3671 403.456 30.3471 403.506 30.3471C403.526 30.3471 403.566 30.3471 403.596 30.3471C403.646 30.3471 403.716 30.3371 403.746 30.3471C403.846 30.3971 403.796 30.6171 403.776 30.6971C403.736 30.7971 403.656 30.8971 403.596 30.9871C403.516 31.0971 403.446 31.1571 403.306 31.2271C403.286 31.4271 404.596 31.3171 404.716 31.2971C404.936 31.2471 405.206 31.0771 405.436 31.0471C405.526 31.0271 405.596 31.0571 405.696 31.0271C405.826 30.9871 405.926 30.9771 406.066 30.9571C406.216 30.9371 406.336 30.8571 406.496 30.8471C406.596 30.8371 406.696 30.8471 406.796 30.8471C406.896 30.8471 407.006 30.8671 407.116 30.8471C407.376 30.8271 407.626 30.7071 407.896 30.6771C407.956 30.6671 408.016 30.6671 408.086 30.6671C408.146 30.6671 408.206 30.6671 408.276 30.6671C408.496 30.6271 408.726 30.5971 408.946 30.5571C409.226 30.4871 409.526 30.4571 409.806 30.4071C410.206 30.3271 410.636 30.3871 411.046 30.3971C411.416 30.4071 411.786 30.5371 412.156 30.5771C412.596 30.6271 412.076 30.9171 411.916 31.0071C411.406 31.3171 410.826 31.6071 410.266 31.8171C409.886 31.9771 409.576 32.0871 409.166 32.0671C408.936 32.0671 408.766 32.0771 408.546 32.1571C408.406 32.2071 408.296 32.2471 408.146 32.2671C408.026 32.2671 407.906 32.2571 407.776 32.2571C407.606 32.2571 407.416 32.2271 407.236 32.2471C407.156 32.2671 407.106 32.2971 407.016 32.3071C406.956 32.3071 406.896 32.3071 406.846 32.2971C406.716 32.2871 406.596 32.2871 406.476 32.3371C406.346 32.3871 406.346 32.4271 406.196 32.4371C406.136 32.4371 406.076 32.4371 406.036 32.4371C405.906 32.4271 405.776 32.4271 405.646 32.4771C405.336 32.6171 405.006 32.6171 404.676 32.6271C404.636 32.6271 404.606 32.6171 404.556 32.6271C404.536 32.6471 404.516 32.6571 404.486 32.6871C404.276 32.7771 404.066 32.8471 403.856 32.9071C403.396 33.0771 402.976 33.3371 402.496 33.4771C402.376 33.5171 402.316 33.4971 402.216 33.5271C401.916 33.5971 401.616 33.6971 401.326 33.7771C401.196 33.8271 401.046 33.8671 400.916 33.9071C400.676 33.9771 400.516 34.0871 400.306 34.1971C400.196 34.2471 400.086 34.2871 399.986 34.3471C399.806 34.4371 399.646 34.4871 399.446 34.5071C399.286 34.5271 399.136 34.5771 398.976 34.6071C398.816 34.6371 398.756 34.7471 398.646 34.8271C398.536 34.8971 398.396 34.8771 398.286 34.9371C398.056 35.0571 397.846 35.1871 397.616 35.3071C397.506 35.3571 397.416 35.3971 397.316 35.4371C397.186 35.5171 397.006 35.5971 396.896 35.7071C396.806 35.8071 396.806 36.0571 396.826 36.2071C396.816 36.2071 396.816 36.2171 396.796 36.2171C396.806 36.2171 396.816 36.2171 396.826 36.2171C396.836 36.2471 396.836 36.2571 396.836 36.2771C397.116 36.3571 397.366 36.3371 397.656 36.2971C397.766 36.2871 397.876 36.2771 397.976 36.2371C398.126 36.2071 398.246 36.2071 398.396 36.1771C398.666 36.1471 398.916 36.0071 399.176 35.8971C399.216 35.8871 399.246 35.8571 399.286 35.8371C402.636 35.0871 405.796 33.5271 409.286 33.2871C409.346 33.2871 415.126 33.0271 419.006 34.8271C420.206 35.3871 426.046 38.6471 423.046 48.1771L423.336 47.3471C424.016 45.0571 424.216 43.8671 424.406 42.5271L424.416 42.4071C424.676 40.0371 424.666 39.5771 424.616 37.0671C424.346 33.5171 424.046 32.3271 423.256 29.6271L423.156 29.4471C423.046 29.1471 424.086 26.5671 418.406 20.8871C415.976 18.5871 412.476 18.3971 409.726 16.7371C410.126 16.5971 410.126 16.5971 410.706 16.7171C408.396 15.2671 405.576 15.5971 403.126 14.6571C403.436 14.4071 403.596 14.2571 404.376 14.2871C404.356 14.1971 404.336 14.0471 404.316 13.9571C407.986 13.5171 410.606 14.2971 412.446 15.2871C412.216 15.1171 411.986 14.9471 411.756 14.7571C412.296 15.0071 412.566 15.1271 413.406 15.7471L413.486 15.8171L413.266 15.6371C409.526 12.7871 404.166 9.16707 387.656 15.8271L386.406 15.4071C386.396 15.3771 385.016 16.1771 384.996 16.1571" fill="#FFD400"></path><path d="M373.098 17.157L373.668 16.577C373.428 16.817 373.248 16.987 373.098 17.157ZM419.208 19.527C419.178 19.497 419.158 19.467 419.128 19.437C419.138 19.457 419.158 19.467 419.168 19.487L419.208 19.527ZM411.608 12.547C411.588 12.537 411.568 12.537 411.558 12.517L411.608 12.547ZM373.078 17.167C373.088 17.157 373.088 17.157 373.098 17.147L373.078 17.167ZM409.418 20.057C408.908 19.807 408.608 19.677 408.238 19.587C408.028 19.527 407.868 19.507 407.628 19.487C407.638 19.487 407.658 19.507 407.678 19.517C407.918 19.657 407.918 19.657 409.328 20.027C409.348 20.037 409.388 20.047 409.418 20.057ZM425.128 35.147C424.748 31.737 424.548 31.007 423.788 28.287L423.338 27.007C422.238 24.117 421.038 22.257 419.868 20.457C419.498 19.927 419.478 19.897 419.028 19.307C419.008 19.287 418.998 19.267 418.978 19.257H418.988C417.228 17.057 416.458 16.417 414.528 14.777C414.878 14.997 414.878 14.997 415.368 15.387L415.148 15.187C410.188 10.887 405.258 9.55701 399.378 8.87701C400.008 8.77701 405.848 8.977 411.568 12.527C406.008 9.037 400.838 8.327 398.068 8.107C397.408 8.077 396.648 8.04701 395.778 8.04701C393.278 8.02701 389.868 8.487 385.398 9.917L385.418 9.897C385.418 9.897 382.568 10.757 379.928 12.027C379.858 12.057 379.788 12.097 379.728 12.127C379.688 12.147 379.658 12.157 379.618 12.177C379.428 12.267 379.248 12.367 379.078 12.457C379.048 12.477 379.018 12.487 378.978 12.507C378.858 12.567 378.748 12.637 378.628 12.697C378.368 12.847 378.098 12.997 377.858 13.147C377.678 13.257 377.488 13.377 377.298 13.497L376.878 13.797C376.538 14.057 376.098 14.397 375.768 14.667C375.058 15.257 375.028 15.287 373.818 16.427C375.858 14.547 381.598 11.247 390.838 10.207C390.388 10.577 389.858 10.777 388.508 11.117C383.708 12.217 376.458 13.877 373.128 17.127C373.108 17.137 373.088 17.167 373.068 17.177C372.718 17.537 372.428 17.887 371.538 18.937C370.708 19.967 370.658 20.047 369.438 21.887L368.838 22.897C368.808 22.987 368.788 23.137 368.758 23.237C368.848 23.257 368.958 23.257 369.038 23.267C368.348 26.107 368.348 26.107 368.348 26.117C369.438 25.227 369.438 25.227 369.488 25.197C368.848 26.657 368.848 26.657 368.738 27.047C368.748 27.047 368.758 27.027 368.758 27.027C368.648 27.297 368.528 27.647 368.448 27.917C368.518 28.007 368.608 28.117 368.668 28.207C369.188 27.867 369.618 27.417 370.188 27.137L369.538 27.597C369.988 27.407 370.588 27.167 371.038 26.997C370.588 27.587 370.118 28.127 369.678 28.707C370.138 28.427 370.558 28.067 371.068 27.847C371.128 27.907 371.208 27.987 371.268 28.047C371.958 27.957 372.358 27.737 374.308 26.607L375.498 25.927C374.278 26.707 374.118 26.807 373.778 27.367C374.218 27.327 374.218 27.327 376.668 26.157C379.888 24.657 381.978 23.837 388.298 22.347H388.278C397.528 20.817 397.528 20.817 403.788 21.007C401.538 20.557 401.538 20.557 393.528 20.657C385.278 21.577 381.988 22.827 380.558 23.367C378.228 24.257 378.178 24.237 377.738 24.167C379.748 22.687 388.938 19.477 391.318 19.137C391.248 19.137 383.958 20.177 379.858 22.297C377.528 23.487 374.758 24.297 374.758 24.307C375.818 23.317 377.458 22.187 378.408 21.097C377.478 20.867 377.038 21.177 375.408 21.547C381.768 13.467 416.728 11.257 422.788 27.467C422.408 26.927 418.978 22.097 412.948 19.547C411.458 18.917 411.408 18.867 411.118 18.577C411.198 18.547 411.298 18.497 411.388 18.457C410.588 17.997 406.528 16.737 404.918 17.047C410.708 18.497 419.708 22.757 419.468 25.027C417.038 24.207 415.248 22.257 412.838 21.387C415.558 22.877 420.118 25.377 420.838 27.797C420.758 27.837 420.648 27.907 420.568 27.967C420.298 27.797 419.948 27.537 419.708 27.327C419.708 27.347 419.698 27.357 419.698 27.367C419.158 26.777 415.948 24.277 413.838 23.377C410.848 22.107 407.588 21.837 404.498 20.897C407.858 22.187 411.508 22.637 414.668 24.437C418.438 26.567 421.258 30.347 421.288 30.377C426.308 37.157 424.328 44.087 423.588 46.677L422.968 48.327L423.628 46.607C424.338 44.427 424.398 44.067 424.908 41.347C425.238 38.507 425.228 37.927 425.128 35.147ZM390.588 21.607H390.618C389.848 21.707 388.818 21.877 388.048 21.987C388.808 21.867 389.828 21.717 390.588 21.607ZM401.358 9.497C400.598 9.407 399.168 9.24701 397.238 9.20701C397.168 9.20701 397.058 9.20701 396.978 9.20701C399.358 9.14701 401.068 9.28701 402.888 9.68701C402.308 9.59701 402.038 9.567 401.358 9.497ZM373.828 16.417C373.778 16.467 373.728 16.517 373.668 16.567L373.708 16.527C373.738 16.497 373.788 16.457 373.828 16.417ZM419.038 19.317C419.018 19.297 418.998 19.267 418.988 19.247C419.008 19.267 419.008 19.277 419.028 19.297C419.028 19.317 419.028 19.317 419.038 19.317Z" fill="#F29100"></path><path d="M423.086 48.307C423.196 48.007 423.296 47.707 423.396 47.397L423.106 48.227C423.096 48.247 423.086 48.277 423.086 48.307Z" fill="#004587"></path><path d="M379.154 53.0269C378.894 52.8469 378.614 52.7069 378.324 52.6069C378.314 52.6169 378.654 52.7669 379.154 53.0269Z" fill="#004587"></path><path d="M419.065 34.8669C418.525 34.6169 417.945 34.4069 417.355 34.2369C417.355 34.2369 417.355 34.2469 417.355 34.2569C417.305 34.2369 417.255 34.2169 417.205 34.1969C416.235 33.9169 415.225 33.7269 414.275 33.5869C412.285 38.2969 409.705 41.0569 406.455 43.6969C401.695 47.5869 405.815 46.4569 405.865 46.4269C406.325 46.2469 406.745 45.9769 406.935 45.8469C402.445 50.8469 389.615 56.3869 380.125 52.4269C377.615 51.3769 375.905 50.7469 380.695 53.7169C380.645 53.7169 380.595 53.6969 380.555 53.6869C382.595 54.7069 385.115 56.0869 383.835 56.1369C383.835 56.1569 383.835 56.2069 383.835 56.2269L383.775 56.2069L383.835 56.2369C383.885 56.2769 383.885 56.2769 387.345 57.5669C387.125 57.6469 386.945 58.4069 389.855 58.6969C393.235 59.0269 396.275 58.6469 399.095 57.8269C393.165 61.9369 386.285 64.5469 379.475 63.2269C379.655 63.2969 379.895 63.3869 380.075 63.4569C381.665 64.0169 382.685 64.2169 384.255 64.3369C384.245 64.4069 384.235 64.5069 384.235 64.6069C385.345 65.1869 386.815 64.8169 387.055 64.6869C387.685 64.3669 387.925 64.2969 392.015 64.0069C391.105 64.7469 389.835 64.3969 388.895 65.0369C388.925 65.1669 389.035 65.3469 389.145 65.4169C394.305 64.7069 399.625 63.9869 412.805 53.2669C412.965 53.1369 413.205 53.0069 413.385 52.9369L413.355 52.9569C412.385 53.8769 412.385 53.8769 404.175 60.8469C402.215 62.5069 399.385 62.6969 397.555 64.5769C397.585 64.6469 397.615 64.7369 397.635 64.8169L397.575 64.8569L397.655 64.8369C399.465 65.2469 400.905 63.9969 402.565 63.7469C402.525 63.7969 402.475 63.2569 395.925 66.1769C395.925 66.2469 395.855 66.1369 395.905 66.6069C398.225 66.0769 402.835 65.4769 405.885 63.6569C410.415 61.1669 418.955 53.6569 422.915 45.4369C423.015 45.2269 423.185 44.9669 423.365 44.8369L423.375 45.0569C423.525 45.3469 423.525 45.3469 423.105 46.8369C423.435 46.1469 423.675 45.4369 423.885 44.7169C424.615 37.8669 420.105 35.3569 419.065 34.8669ZM414.175 41.4669C413.995 41.7469 413.805 42.0469 413.605 42.3469C412.675 43.7469 410.845 44.0569 409.825 45.3669C409.585 45.2269 409.515 45.1869 409.115 45.4069C409.005 44.7769 410.035 43.9169 409.215 43.5269C410.045 41.7369 411.495 40.3469 412.725 38.8169C413.025 40.1169 415.545 38.1369 415.625 38.0469C415.685 37.9569 415.755 37.8369 415.815 37.7469C415.515 38.7769 414.955 40.0569 414.175 41.4669Z" fill="url(#paint0_linear_1905_26398)"></path><path d="M423.405 47.167L423.415 47.137L423.425 47.097C423.485 46.857 423.535 46.627 423.585 46.397C421.675 52.257 417.555 56.707 415.015 59.017C415.365 58.787 415.625 58.587 415.985 58.247C415.445 58.807 415.285 58.987 415.155 59.207C415.485 58.917 415.775 58.667 416.115 58.407C416.015 58.617 416.015 58.617 413.965 60.637C416.515 58.387 420.665 54.727 422.925 48.737L423.095 48.237C423.225 47.857 423.315 47.507 423.405 47.167Z" fill="#004587"></path><path d="M422.995 48.5769L422.955 48.6869C422.965 48.6469 422.975 48.6069 422.995 48.5769Z" fill="#004587"></path><path d="M380.545 53.6869C380.025 53.4269 379.535 53.1969 379.145 53.0269C379.605 53.2869 380.035 53.5669 380.545 53.6869Z" fill="#004587"></path><path d="M422.936 48.7268L422.916 48.7768L422.946 48.6868L422.986 48.5768L423.046 48.4068C423.056 48.3668 423.066 48.3368 423.076 48.3068C423.086 48.2868 423.096 48.2568 423.096 48.2268L422.936 48.7268Z" fill="#F29100"></path><path d="M421.588 36.7569C420.438 41.3469 419.048 43.467 417.018 46.567C415.878 48.297 413.638 48.687 412.378 50.267C412.078 50.097 411.988 50.047 411.498 50.317C411.368 49.537 412.618 48.487 411.628 48.017C413.298 44.367 417.088 42.0969 418.248 38.1169C417.798 38.6869 417.468 39.3469 417.018 39.9169C417.528 38.1669 418.328 36.5169 418.698 34.7269C418.608 34.6869 418.518 34.6469 418.428 34.6169C418.328 34.7969 418.198 35.0269 418.028 35.3569C415.558 41.4269 412.328 44.9169 408.238 48.2569C402.398 53.0269 407.458 51.6269 407.518 51.6069C408.088 51.3769 408.588 51.0469 408.828 50.8969C401.868 58.6469 378.568 67.447 367.848 52.427C367.958 52.577 368.078 52.797 368.178 52.957C370.778 56.907 370.778 56.907 376.658 60.547C375.558 60.357 374.768 59.507 373.728 59.187C373.748 59.217 376.258 62.4769 383.748 63.3369C391.738 64.2569 394.008 63.6369 396.408 62.9869C398.458 62.4369 400.298 62.237 400.308 62.237L400.268 62.2569C394.368 64.0569 394.368 64.057 387.788 64.477C386.508 64.557 385.278 64.287 384.058 64.007C382.888 63.737 381.718 63.4769 380.508 63.5169C380.508 63.5469 380.508 63.597 380.498 63.627L380.418 63.6169L380.498 63.637C380.558 63.697 380.558 63.6969 384.808 65.2769C384.548 65.3769 383.288 65.5469 378.068 63.3069C378.108 63.3369 384.328 66.297 387.878 66.657C399.528 67.797 407.888 62.157 415.988 56.707C415.988 56.747 415.978 56.807 415.968 56.847C416.068 56.867 416.198 56.8769 416.298 56.8869C416.238 57.0669 416.238 57.0669 415.368 58.1169C417.278 56.5769 418.258 54.1869 420.278 52.7269C420.098 53.5769 413.778 63.7269 399.708 66.9869C400.388 66.8869 400.598 66.857 401.348 66.667C400.378 66.937 400.348 66.967 399.938 67.097C400.198 67.057 400.198 67.0569 401.508 66.7969C400.738 67.1769 399.848 67.347 397.718 67.787C409.898 65.677 418.828 58.7569 422.868 48.2769C423.418 46.4569 423.648 45.717 423.868 44.567C424.258 40.697 422.968 38.2369 421.588 36.7569Z" fill="#002F63"></path><path d="M376.925 48.5469C376.065 48.6769 375.265 48.8669 374.565 48.9869C374.725 49.4869 375.025 50.0369 375.395 50.6269C375.675 50.1069 376.015 49.6669 376.335 49.2769C376.535 49.0169 376.745 48.7769 376.925 48.5469ZM334.725 48.8869C334.225 48.0769 333.795 46.3669 333.625 44.0169C326.415 45.1469 323.115 40.4769 323.365 36.2969C323.555 33.1069 324.355 31.7969 327.945 28.9669C324.405 28.4169 322.315 25.3669 322.625 22.7769C322.885 20.6469 323.225 20.0869 323.715 19.3769L324.105 18.8069L324.675 19.1969C324.695 19.2169 327.325 20.9869 328.435 21.4769C328.455 21.4869 328.555 21.5269 328.775 21.5569C328.995 21.5969 329.255 21.6369 329.545 21.6869C330.165 21.7869 330.925 21.9169 331.675 22.1469C333.185 22.5969 334.945 23.5069 335.445 25.5369C335.915 27.4269 335.535 28.8469 334.575 30.1069C334.115 30.7069 333.535 31.2669 332.885 31.8269C332.255 32.3669 331.525 32.9369 330.735 33.5669C329.585 34.4969 329.035 35.5969 329.145 36.6269C329.285 37.8969 330.305 38.4869 331.445 38.4869C332.875 38.4869 334.245 37.7269 335.815 36.6269C336.595 36.0769 337.395 35.4769 338.215 34.8969C339.055 34.3169 339.945 33.7569 340.895 33.3069C341.725 32.9169 342.475 32.6869 343.175 32.5469C343.845 32.4069 344.465 32.3469 345.045 32.2869C346.175 32.1769 347.045 32.0769 347.995 31.4669C348.295 31.2769 348.625 30.9869 349.025 30.6169C349.445 30.2369 349.885 29.8169 350.365 29.4369C351.355 28.6369 352.595 27.8569 354.125 27.7669C354.515 27.7469 354.965 27.7269 355.375 27.7069C355.795 27.6769 356.085 27.6269 356.235 27.5869C356.345 27.5469 356.505 27.4369 356.775 27.1969C357.045 26.9469 357.345 26.6369 357.695 26.3169C358.415 25.6369 359.385 24.8669 360.765 24.4069C362.535 23.8169 363.735 23.4569 364.875 22.9869C365.975 22.5269 367.015 21.9669 368.505 20.9569C369.465 20.3069 373.195 18.9669 377.155 21.6369C378.335 22.4369 379.295 23.1769 380.405 24.0869C381.495 24.9769 382.745 26.0669 384.505 27.5369C385.055 28.0769 385.665 28.8069 386.205 29.4769C386.735 30.1469 387.245 30.8269 387.665 31.3469C389.565 33.6769 390.995 35.4869 391.305 37.7169C391.855 41.6069 392.215 43.8369 393.745 47.7669C393.755 47.7869 393.775 47.8369 393.855 47.9269C393.935 48.0269 394.025 48.1269 394.135 48.2369L394.485 48.6069C394.615 48.7369 394.745 48.8869 394.845 49.0169C395.115 49.3569 395.335 49.7369 395.525 50.1069C395.715 50.4569 395.905 50.8369 396.125 51.2069C396.535 51.9069 396.995 52.5069 397.705 52.9069C398.615 53.4169 398.855 53.5469 399.225 53.8969C399.885 54.5169 399.545 55.4569 399.005 55.9369C398.665 56.2369 398.205 56.4469 397.625 56.5569C397.895 57.5669 397.115 58.6369 395.475 58.6869C392.135 58.7969 389.935 57.1869 389.035 56.3769L388.915 56.4669C388.555 56.7269 388.015 57.1169 387.315 57.3969C386.505 57.7869 385.585 57.7769 384.835 57.7169C384.455 57.6969 384.085 57.6569 383.715 57.6369C383.365 57.6169 383.075 57.6269 382.815 57.6669C382.215 57.7769 381.515 58.0269 380.795 58.2669C380.065 58.5069 379.225 58.7669 378.445 58.7869C377.005 58.8469 376.095 58.2669 375.615 57.3469C375.505 57.1469 375.435 56.9369 375.365 56.7169C374.815 57.7669 374.165 58.6369 373.605 58.8969C373.075 59.1569 372.375 59.2469 371.855 59.3169C371.595 59.3469 371.345 59.3769 371.135 59.3969C371.045 59.4069 370.975 59.4269 370.905 59.4369C368.585 60.5269 364.905 61.8969 363.455 61.9469C361.825 62.0069 360.145 60.6969 359.215 58.8569C358.505 58.9069 357.645 58.7169 357.325 58.3869C356.415 57.4769 355.115 54.9869 355.055 53.9769C355.015 53.2969 355.455 52.8569 355.875 52.6269C356.275 52.3969 356.795 52.2669 357.265 52.1869C358.205 52.0369 359.265 52.0369 359.745 52.0369C359.935 52.0369 360.085 52.0369 360.215 52.0369C360.365 52.0369 360.545 52.0469 360.735 52.1069C360.815 52.1269 360.905 52.1669 360.995 52.1969C361.345 51.7469 361.955 51.5669 362.415 51.5069C362.515 51.4869 362.615 51.4869 362.715 51.4769C362.455 51.2569 362.205 51.0169 361.965 50.7869C361.825 50.8569 361.675 50.8969 361.535 50.9369C361.105 51.0669 360.545 51.1669 359.925 51.2169C358.015 51.3569 354.785 51.0469 354.505 51.0469C354.015 51.0769 353.085 51.2369 352.125 51.3869C351.355 51.4969 350.485 51.6069 349.785 51.5969C349.445 52.2669 349.125 52.9469 348.845 53.5269C348.515 54.2169 348.175 54.8669 347.895 55.2069C347.455 55.7569 346.925 56.0969 346.465 56.3269C346.255 56.4269 346.035 56.5269 345.835 56.6169C345.675 56.6869 345.535 56.7469 345.415 56.8269C345.025 57.0669 344.345 57.4769 343.615 57.7969C342.925 58.1069 342.015 58.4269 341.255 58.2969C339.465 58.0169 338.185 57.8869 337.575 57.8569C337.315 57.8369 337.035 57.9269 336.665 58.1769C336.465 58.3069 336.265 58.4669 336.075 58.6269C335.855 58.8069 335.635 59.0069 335.405 59.1969C334.475 59.9869 333.235 60.9269 331.495 60.7969C331.345 60.7869 331.005 60.7569 330.665 60.6969C330.505 60.6669 330.325 60.6369 330.145 60.5869C330.015 60.7569 329.915 60.9269 329.805 61.1269C329.705 61.2969 329.605 61.4669 329.505 61.6269C329.395 61.8069 329.285 61.9869 329.155 62.1469C328.585 62.9069 327.775 63.4569 326.295 63.5269C326.235 63.5369 326.125 63.5269 325.955 63.5069C325.855 63.4869 325.715 63.4669 325.565 63.4369C325.275 63.3869 324.915 63.3169 324.555 63.2369C324.205 63.1669 323.855 63.0969 323.565 63.0469L323.225 62.9869C323.125 63.0669 323.035 63.1369 322.945 63.1869C322.815 63.2669 322.635 63.3369 322.405 63.3369C322.205 63.3369 321.435 63.2669 320.685 63.0869C320.305 62.9969 319.885 62.8669 319.535 62.6669C319.205 62.4869 318.785 62.1669 318.655 61.6469C318.475 60.9169 318.595 60.4369 318.835 59.9969C318.915 59.8569 319.015 59.7069 319.105 59.5369C319.185 59.3969 319.245 59.2469 319.305 59.0469C319.395 58.7169 319.445 58.3869 319.515 58.0669C319.585 57.7269 319.665 57.3469 319.805 56.9869C320.125 56.1969 320.725 55.5769 321.885 55.4569L321.965 55.4469C322.725 53.5469 324.795 52.5069 326.085 52.5569H326.145C327.145 52.7669 327.755 53.3469 328.105 53.9769C328.335 53.7769 328.515 53.5569 328.645 53.3469C328.695 53.2769 328.725 53.1769 328.775 53.0669C328.825 52.9269 328.875 52.7669 328.925 52.5969C329.045 52.2269 329.175 51.8069 329.325 51.4269C329.615 50.6969 330.195 49.6169 331.405 49.6169C332.445 49.6269 333.515 49.4569 334.215 49.1769C334.495 49.0669 334.655 48.9569 334.725 48.8869Z" fill="white"></path><path d="M396.795 54.0869C395.175 53.1369 394.525 51.347 393.525 49.937C393.175 49.427 392.545 49.0969 392.225 48.5869C391.065 45.4169 390.055 42.247 389.755 38.627C389.515 37.727 389.325 36.8069 388.835 35.9669C387.375 33.5869 385.475 31.4169 383.635 29.2269C383.475 29.0669 383.205 28.9269 383.115 28.7169L376.695 23.3869C375.915 22.7869 375.015 22.4069 374.125 22.0069C372.775 21.4869 370.925 21.5969 369.605 22.1669C368.225 22.8969 366.975 23.9569 365.515 24.4469C363.405 25.3969 361.025 25.587 359.205 27.207C358.155 28.117 357.255 29.557 355.685 29.317C353.925 29.237 352.355 29.8869 351.035 30.9669C349.845 32.0469 348.705 33.3169 347.165 33.6169C345.815 34.1869 344.165 33.917 342.785 34.427C340.595 34.967 338.855 36.7069 336.995 38.0269C335.125 39.1069 333.335 40.2669 331.005 40.2169C329.485 40.0969 328.035 39.0469 327.535 37.5869C327.075 35.9069 327.585 34.177 328.915 33.037C330.295 31.387 332.485 30.407 333.575 28.517C334.145 27.517 334.065 25.887 333.305 24.937C331.875 23.457 329.815 23.397 327.945 22.937C326.755 22.617 325.835 21.687 324.775 21.127C324.365 21.747 324.235 22.417 324.285 23.187C324.505 24.887 325.795 26.4269 327.425 27.0269C328.375 27.4369 329.455 27.137 330.425 27.347C330.695 27.457 330.965 27.7269 330.995 28.0269C330.945 28.2969 330.915 28.5669 330.675 28.7569C329.155 30.0269 327.555 31.247 326.285 32.817C324.935 34.287 324.765 36.8469 325.465 38.6969C326.255 40.8069 328.445 42.1869 330.555 42.4669C332.095 42.7069 333.475 42.2969 334.885 42.0069C335.075 42.0069 335.155 42.197 335.235 42.297C335.375 43.547 335.185 44.657 335.455 45.797C335.695 46.847 336.055 47.5869 336.435 48.6069C336.495 48.9569 336.435 49.3369 336.195 49.6069C335.405 50.2069 334.595 50.607 333.735 50.987L331.625 51.1169L331.215 51.3069C330.425 52.2169 330.405 53.167 329.915 54.207C329.265 55.287 328.075 55.8069 327.075 56.4169C326.745 56.9369 326.395 57.4769 325.945 57.8869C325.595 58.2169 325.155 58.297 324.695 58.347C323.965 59.187 323.805 60.347 323.615 61.487C324.805 61.597 326.045 62.247 327.215 61.597C328.215 61.137 328.435 59.917 329.195 59.187C329.785 58.5369 330.685 59.027 331.385 59.157C332.445 59.217 333.205 58.457 334.095 58.097C334.715 57.697 335.225 56.9869 335.885 56.5869C337.125 55.9869 338.865 56.3169 340.165 56.5569C341.195 56.8269 342.275 56.6569 343.175 56.2569C344.015 55.7469 344.795 55.097 345.745 54.877C346.585 54.447 346.995 53.487 347.345 52.707C347.615 51.977 348.325 51.407 348.265 50.567C348.045 50.377 347.805 49.9669 347.475 49.9969C347.075 50.5669 346.775 51.167 346.315 51.707C344.355 54.377 342.815 54.627 338.835 54.627C335.885 54.517 333.235 55.407 331.205 57.707C331.065 57.797 330.875 57.737 330.775 57.627C330.695 57.307 330.965 56.7669 331.105 56.5269C332.915 53.9469 335.725 53.3569 338.705 53.3069C340.335 53.1969 341.875 52.9269 343.255 52.2169C344.795 51.4369 345.855 50.2069 346.505 48.6969C346.855 46.9969 346.985 45.1469 347.425 43.5269C347.475 43.3669 347.885 43.247 348.015 43.297C348.185 43.327 348.505 43.4769 348.505 43.6669C348.205 45.3469 347.665 47.3269 348.325 48.9469C349.625 50.6569 352.035 49.7369 353.795 49.6469C355.635 49.4869 357.115 49.627 358.875 49.737C359.745 49.707 360.385 49.9169 361.055 49.3869C361.245 49.0869 361.325 48.6869 361.265 48.3569C361.215 47.8769 360.805 47.5769 361.265 47.1669C361.405 47.0669 361.805 47.127 361.915 47.267C362.155 47.937 362.275 48.667 362.705 49.267C363.575 50.377 364.845 51.2469 366.035 51.8669C367.175 52.6569 368.115 53.7669 368.195 55.1469C368.195 55.8469 367.545 56.3369 367.005 56.6669C366.085 57.1169 365.085 57.507 364.005 57.407C362.565 56.697 362.185 55.187 361.235 54.077C360.755 53.527 360.025 53.4269 359.285 53.4769C358.505 53.5569 357.715 53.5869 357.015 53.827C356.825 53.9969 356.765 54.2269 356.795 54.4769C357.285 55.3769 357.825 56.237 358.365 57.127C358.985 57.517 359.855 56.917 360.395 57.597C360.855 58.307 361.155 59.137 361.855 59.677C362.535 60.267 363.565 60.5369 364.455 60.1669C366.455 59.5469 368.465 58.8969 370.335 57.8869H370.955C371.715 57.8069 372.555 57.857 373.095 57.297C373.685 56.427 374.175 55.617 374.635 54.687C375.105 54.077 374.885 53.1269 374.695 52.4469C373.775 51.3169 373.265 50.037 372.775 48.737C372.315 48.597 371.905 48.3269 371.395 48.3569C371.155 48.4669 370.795 48.4069 370.665 48.687L372.805 52.907C372.935 53.227 373.105 53.687 373.025 54.127C372.725 55.017 372.265 55.887 371.535 56.537C371.395 56.617 371.235 56.6969 371.125 56.5069C371.375 55.5869 371.805 54.5869 371.745 53.5269L369.655 49.767C369.415 49.257 368.985 48.7969 369.005 48.1969C369.005 47.9169 369.245 47.7269 369.465 47.6169C370.385 47.3169 371.495 47.3769 372.205 46.6469C373.125 45.2169 373.315 43.807 373.565 42.097C373.615 41.987 373.835 41.7769 374.005 41.7769C374.165 41.7269 374.355 41.957 374.435 42.037C374.705 43.907 374.325 45.797 373.245 47.267C373.185 47.457 373.115 47.697 373.325 47.827C374.355 48.1569 375.435 47.8269 376.305 47.3669C377.415 47.3869 378.445 47.117 379.445 46.957C379.555 47.017 379.665 47.1169 379.665 47.2269C378.985 47.9869 378.605 48.827 378.415 49.797C377.595 50.637 376.435 51.3769 376.355 52.5869C376.495 53.1769 377.005 52.617 377.355 52.677C377.525 52.697 377.625 52.8369 377.625 52.9969L376.815 54.187C376.375 54.887 376.895 55.697 376.895 56.377C377.085 56.917 377.735 57.187 378.305 57.187C379.525 57.1269 380.605 56.677 381.685 56.297C382.875 55.787 384.365 55.807 385.665 56.017C386.935 55.937 387.885 55.0969 388.835 54.2569C389.355 54.2569 389.815 54.607 390.155 54.987C391.625 56.557 393.515 57.237 395.645 57.177L395.845 57.067C395.975 56.927 395.925 56.687 395.765 56.577L394.495 55.927C393.605 55.357 392.495 54.607 392.195 53.597C391.925 52.707 391.435 51.7269 390.895 50.8669C390.705 50.4369 390.275 50.087 390.085 49.657C390.145 49.597 390.195 49.517 390.275 49.547C391.685 50.027 392.525 51.4169 393.175 52.6669C394.205 54.0969 395.685 55.3169 397.645 54.9969L397.805 54.8569C397.885 54.7469 397.855 54.6169 397.805 54.5269L396.795 54.0869ZM375.535 35.017L375.525 35.067L375.485 35.1069C375.395 35.1969 375.225 35.2669 375.045 35.1469L374.985 35.1169L374.975 35.047C374.755 33.927 374.515 32.807 374.095 31.767C374.045 31.637 373.955 31.497 373.855 31.347C373.755 31.197 373.635 31.0469 373.545 30.8969C373.345 30.5769 373.195 30.1969 373.435 29.7469L373.465 29.6969C373.695 29.4769 374.065 29.447 374.325 29.547L374.365 29.577C374.835 29.8969 375.125 30.4069 375.365 30.827C375.895 32.0669 375.895 33.717 375.535 35.017ZM385.895 52.927L385.875 52.9469L385.845 52.957C385.305 53.127 384.715 53.187 384.135 53.157H384.105L384.075 53.1369C384.035 53.1169 383.995 53.1069 383.955 53.0869C383.915 53.0669 383.865 53.0369 383.825 52.9969C383.735 52.9269 383.645 52.7969 383.705 52.6169C383.965 51.8369 384.715 51.047 385.565 50.877H385.605C385.665 50.877 385.725 50.877 385.785 50.877C385.855 50.877 385.925 50.8869 385.995 50.8969C386.155 50.9469 386.305 51.067 386.345 51.287C386.405 51.807 386.425 52.537 385.895 52.927ZM389.245 45.517C389.205 45.607 389.185 45.6769 389.165 45.7469C389.145 45.8269 389.115 45.907 389.085 45.987C389.015 46.157 388.905 46.347 388.655 46.407C388.375 46.487 388.145 46.287 388.145 46.017C388.115 45.657 388.105 45.2969 388.045 44.9469C387.985 44.6069 387.885 44.307 387.695 44.037C387.565 43.907 387.455 43.757 387.315 43.597C387.185 43.447 387.055 43.2869 386.915 43.1469C386.645 42.8669 386.375 42.697 386.055 42.687C385.835 42.757 385.635 42.9269 385.445 43.1369C385.345 43.2469 385.245 43.367 385.155 43.487L384.905 43.827C384.805 43.997 384.595 43.9469 384.515 43.9169L384.455 43.8869L384.435 43.827C384.265 43.3869 384.345 42.9869 384.505 42.6169C384.645 42.2869 384.855 41.9569 384.975 41.6369L385.015 41.577C385.105 41.4869 385.165 41.3469 385.245 41.1669C385.315 40.9769 385.375 40.777 385.455 40.597C385.645 40.197 385.955 39.887 386.595 40.157C386.985 40.367 387.225 40.687 387.415 40.987C387.505 41.147 387.595 41.2969 387.685 41.4469C387.775 41.5869 387.875 41.7269 387.995 41.8369C388.915 42.8869 389.555 44.057 389.245 45.517Z" fill="#DB0A40"></path><path d="M322.056 57.177C321.626 57.387 321.166 57.807 321.056 58.297C320.926 59.157 321.116 59.967 320.436 60.587C320.406 60.767 320.246 60.947 320.406 61.107C320.996 61.297 321.566 61.537 322.296 61.617C322.616 60.557 322.866 59.397 323.246 58.477V58.207C322.926 57.807 322.606 57.287 322.056 57.177Z" fill="#DB0A40"></path><path d="M363.135 54.3068C363.675 54.9068 363.645 55.8268 364.275 56.2868C365.095 56.4269 365.825 56.0968 366.445 55.6168C366.795 55.3168 366.285 54.9368 366.225 54.5868C365.875 54.0668 366.115 53.0468 365.255 53.0168C364.385 53.1468 363.525 53.1768 362.655 53.1768L362.415 53.3468C362.245 53.8468 363.005 53.8468 363.135 54.3068Z" fill="#DB0A40"></path><path d="M324.906 57.0969C325.746 56.6069 326.286 55.6869 326.716 54.9069C326.636 54.6069 326.336 54.3869 326.096 54.1769C325.936 54.0369 325.686 54.1569 325.496 54.1969C324.906 54.7069 324.276 55.1269 323.626 55.5269C323.356 55.7169 323.466 56.1169 323.406 56.4169C323.406 56.6869 323.726 56.8769 323.896 57.0369C324.196 57.1769 324.576 57.2069 324.906 57.0969Z" fill="#DB0A40"></path><path d="M422.905 48.707L423.045 48.337C423.065 48.267 423.085 48.227 423.095 48.157L422.905 48.707ZM399.455 31.867C399.205 31.967 399.055 32.037 398.845 32.177C398.865 32.177 398.895 32.187 398.905 32.187C399.255 32.247 399.255 32.247 400.665 31.717C400.695 31.707 400.745 31.697 400.775 31.667C400.155 31.707 399.845 31.747 399.455 31.867ZM384.475 43.477L384.515 43.467C383.845 43.837 382.955 44.337 382.285 44.727C382.935 44.337 383.815 43.837 384.475 43.477ZM396.965 29.837C396.915 29.857 396.865 29.877 396.795 29.877H396.785C396.845 29.857 396.915 29.847 396.965 29.837ZM403.365 28.417C403.325 28.427 403.275 28.437 403.225 28.457C403.145 28.467 403.065 28.487 402.985 28.487C403.115 28.457 403.245 28.437 403.365 28.417ZM404.125 28.317C404.055 28.317 403.975 28.317 403.905 28.317C404.985 28.127 405.955 27.977 406.835 27.867C406.585 27.947 406.335 28.037 406.095 28.117C406.015 28.137 405.795 28.147 405.705 28.197C405.695 28.237 405.655 28.267 405.605 28.267L405.465 28.307C405.205 28.347 404.935 28.317 404.665 28.317C404.525 28.317 404.385 28.307 404.245 28.307C404.205 28.317 404.165 28.317 404.125 28.317ZM383.655 16.657C379.935 18.017 375.295 20.407 371.375 23.967C370.255 24.987 369.195 25.947 367.375 26.767V26.757C367.185 27.197 366.935 27.817 366.745 28.257C366.395 29.197 366.215 29.697 366.035 30.327C366.035 30.367 366.055 30.437 366.075 30.477C366.365 30.507 366.895 30.197 368.895 28.987C372.515 26.777 374.195 25.797 377.485 24.227C377.225 25.187 376.795 25.757 375.715 26.617C375.415 26.817 375.025 27.097 374.705 27.277C373.535 27.947 372.295 28.507 371.115 29.177C369.725 29.967 368.395 30.857 367.005 31.637C366.875 31.707 366.705 31.797 366.585 31.867C366.035 32.127 365.715 31.987 365.735 31.477C365.735 31.447 365.745 31.417 365.745 31.367C365.675 31.647 365.605 31.937 365.515 32.287C364.995 34.617 364.885 36.617 364.805 38.207C364.805 43.177 365.785 46.057 365.835 46.167C365.845 46.227 365.875 46.277 365.895 46.327C365.995 46.347 366.125 46.367 366.225 46.397C366.525 47.767 366.555 47.917 366.785 48.547C367.385 48.977 367.155 49.737 367.515 50.257C367.695 50.187 367.955 50.137 368.155 50.137L367.855 50.237C368.145 50.357 368.565 50.447 368.865 50.517C368.825 51.627 368.825 51.627 368.975 51.887C369.065 51.827 369.195 51.747 369.275 51.687C370.975 52.057 370.975 52.057 371.845 51.337L372.555 50.727C371.835 51.567 372.075 52.047 372.135 52.657L372.825 53.677C373.345 53.747 372.415 52.247 382.745 45.067L382.735 45.057C387.335 42.457 391.705 39.447 396.265 36.777C392.835 37.797 389.875 39.787 386.625 41.177C385.575 41.787 384.625 42.347 383.755 42.857C383.735 42.837 383.715 42.807 383.695 42.797C383.675 42.757 383.555 42.487 383.475 42.457C383.425 42.447 383.385 42.447 383.345 42.447C383.285 42.447 383.235 42.447 383.175 42.427C382.985 42.357 382.655 42.307 382.455 42.357C382.405 42.367 382.325 42.417 382.285 42.447C382.185 42.497 382.125 42.527 382.035 42.577C381.935 42.607 381.865 42.677 381.765 42.697C381.655 42.727 381.525 42.717 381.405 42.697C381.335 42.697 381.275 42.697 381.225 42.697C381.185 42.697 380.925 42.717 380.895 42.697C380.825 42.617 380.935 42.447 380.955 42.387C380.985 42.317 381.005 42.247 381.015 42.177C381.025 42.127 381.055 42.107 381.105 42.097C381.145 42.047 381.145 42.027 381.175 41.957C381.255 41.777 381.475 41.607 381.645 41.497C381.855 41.347 382.105 41.187 382.325 41.037C382.565 40.887 382.825 40.657 383.115 40.577C383.205 40.547 383.325 40.547 383.425 40.527C383.555 40.487 383.545 40.447 383.605 40.337C383.635 40.277 383.675 40.267 383.655 40.197C383.655 40.167 383.295 40.017 383.245 40.007C383.255 39.987 383.275 39.977 383.285 39.977C383.265 39.997 383.245 39.997 383.225 40.007C383.115 39.987 383.155 39.987 383.055 40.027C382.935 40.077 382.825 40.117 382.715 40.197C382.585 40.297 382.445 40.347 382.315 40.427C382.215 40.507 382.165 40.587 382.115 40.677C381.725 40.917 381.355 41.147 380.985 41.397C380.965 41.407 380.935 41.417 380.905 41.417C380.815 41.437 380.735 41.427 380.655 41.457C380.405 41.507 380.145 41.607 379.905 41.677C379.735 41.717 379.495 41.747 379.355 41.867C379.295 41.917 379.245 41.977 379.195 42.047C379.085 42.167 378.905 42.287 378.775 42.367C378.605 42.457 378.515 42.437 378.335 42.437C378.305 42.437 378.265 42.437 378.235 42.437C378.165 42.447 378.095 42.457 378.035 42.437C378.015 42.437 378.005 42.437 377.985 42.437C377.965 42.437 377.965 42.437 377.925 42.387C377.925 42.357 377.925 42.277 377.945 42.247C378.005 42.157 378.125 42.117 378.155 41.987C378.065 41.887 377.685 41.947 377.555 41.987C377.265 42.067 377.005 42.167 376.735 42.287C376.515 42.397 376.285 42.427 376.065 42.537C375.765 42.677 375.595 42.577 375.285 42.517C375.275 42.407 375.285 42.367 375.325 42.287C375.365 42.217 375.455 42.157 375.495 42.097C375.515 42.077 375.525 42.037 375.535 42.017C375.645 41.907 375.755 41.777 375.865 41.667C376.085 41.447 376.415 41.277 376.655 41.077C376.945 40.817 377.215 40.557 377.485 40.277C377.525 40.227 377.585 40.197 377.635 40.137C377.675 40.147 377.705 40.137 377.735 40.097C377.785 40.057 377.775 39.977 377.825 39.917C377.855 39.907 377.875 39.887 377.895 39.857C378.025 39.737 378.155 39.647 378.295 39.557C378.365 39.527 378.415 39.477 378.445 39.427C378.465 39.357 378.465 39.237 378.425 39.187C378.335 39.187 378.285 39.327 378.235 39.367C378.125 39.487 377.965 39.537 377.825 39.617C377.455 39.787 376.985 39.987 376.565 39.997C376.445 40.007 376.325 40.007 376.195 39.997C376.125 39.987 376.055 39.987 375.985 39.987C375.975 39.987 375.675 40.007 375.645 39.987C375.575 39.887 375.785 39.617 375.825 39.557C375.905 39.437 375.995 39.327 376.085 39.217C376.125 39.167 376.165 39.097 376.195 39.037C376.245 38.987 376.205 39.017 376.305 38.967C376.595 38.797 376.865 38.627 377.135 38.457C377.185 38.407 377.255 38.357 377.315 38.357C377.375 38.337 377.425 38.357 377.475 38.327C377.545 38.287 377.615 38.207 377.675 38.167C377.985 37.967 378.375 37.827 378.705 37.647C379.165 37.397 379.545 37.047 380.025 36.827C380.175 36.747 380.325 36.677 380.485 36.617C380.595 36.577 380.685 36.567 380.785 36.507C380.995 36.347 381.225 36.227 381.465 36.107C381.705 35.997 381.975 35.907 382.215 35.777C382.285 35.737 382.335 35.677 382.395 35.637C382.455 35.617 382.525 35.597 382.585 35.587C382.695 35.527 382.815 35.467 382.915 35.407C383.015 35.357 383.185 35.287 383.285 35.247C383.415 35.197 383.515 35.157 383.625 35.087C383.745 35.027 383.795 34.997 383.845 34.877C383.865 34.817 383.915 34.687 383.865 34.627C383.675 34.607 383.455 34.727 383.275 34.807C383.085 34.887 382.905 34.937 382.725 35.017C382.625 35.057 382.545 35.117 382.455 35.177C382.395 35.197 382.355 35.187 382.315 35.187C382.285 35.187 382.265 35.187 382.235 35.187C382.155 35.187 382.075 35.207 382.005 35.247C381.885 35.267 381.765 35.307 381.655 35.347C381.425 35.427 381.185 35.557 380.985 35.687C380.715 35.837 380.465 36.007 380.185 36.127C379.855 36.287 379.495 36.477 379.135 36.577C378.855 36.657 378.585 36.747 378.325 36.837C378.155 36.897 377.975 36.947 377.815 37.007C377.725 37.047 377.715 37.067 377.655 37.127C377.565 37.207 377.455 37.247 377.335 37.287C377.005 37.417 376.685 37.547 376.355 37.667C376.245 37.687 376.165 37.757 376.055 37.767C375.915 37.787 375.765 37.777 375.615 37.767C375.525 37.767 375.435 37.757 375.355 37.767C375.155 37.757 375.035 37.737 374.845 37.657C374.835 37.647 374.775 37.627 374.715 37.597C375.585 36.987 376.475 36.417 377.395 35.857C378.385 35.257 379.395 34.687 380.425 34.157C381.525 33.567 382.625 33.017 383.745 32.497C384.905 31.947 386.085 31.427 387.265 30.927C388.475 30.417 389.685 29.947 390.925 29.477C392.145 29.017 393.385 28.577 394.625 28.167C395.835 27.787 397.065 27.397 398.305 27.047C399.475 26.717 400.665 26.407 401.865 26.127C402.985 25.867 404.105 25.627 405.245 25.437C405.765 25.347 406.275 25.267 406.795 25.197C406.925 25.177 407.055 25.167 407.185 25.137C407.275 25.127 407.355 25.087 407.425 25.057L407.335 25.127C407.585 25.097 407.825 25.067 408.065 25.037C408.285 25.047 408.515 25.047 408.735 25.057C408.835 25.057 409.345 25.007 409.355 25.187C409.365 25.307 409.225 25.287 409.145 25.317C409.045 25.347 408.955 25.407 408.855 25.447C409.125 25.437 409.385 25.437 409.655 25.437C409.795 25.437 409.925 25.437 410.075 25.437C410.125 25.437 410.325 25.407 410.335 25.487C410.325 25.537 410.305 25.547 410.245 25.547C410.125 25.637 409.995 25.727 409.875 25.807C409.735 25.897 409.625 25.927 409.455 25.967C409.165 26.047 408.875 26.137 408.585 26.207C408.155 26.307 407.705 26.387 407.275 26.427C407.165 26.437 407.025 26.407 407.075 26.577C407.165 26.597 407.255 26.597 407.345 26.587C407.695 26.587 408.045 26.597 408.405 26.597C408.585 26.597 408.775 26.617 408.955 26.577C409.085 26.547 409.195 26.527 409.335 26.547C409.485 26.567 409.645 26.607 409.795 26.647C407.955 26.827 405.965 27.117 404.095 27.617C402.565 28.037 402.265 28.067 401.515 28.017C401.635 27.847 401.815 27.637 401.955 27.487C401.025 27.347 395.435 29.277 395.055 30.267C395.075 30.267 395.085 30.267 395.095 30.257C395.035 30.407 395.125 30.447 395.255 30.497C395.615 30.577 395.985 30.607 396.365 30.587C396.815 30.607 397.255 30.607 397.695 30.597C398.035 30.607 398.375 30.607 398.715 30.607C399.345 30.607 399.985 30.657 400.605 30.517C401.115 30.397 401.625 30.197 402.125 30.037C402.615 29.887 403.105 29.697 403.605 29.567C403.715 29.527 403.835 29.497 403.955 29.467C404.005 29.457 404.135 29.367 404.195 29.367C404.315 29.367 404.335 29.427 404.285 29.527C404.185 29.707 403.615 29.827 403.465 29.877C403.215 29.967 402.945 30.057 402.705 30.157C402.715 30.387 403.055 30.347 403.315 30.317C403.415 30.297 403.505 30.277 403.555 30.277C403.575 30.277 403.615 30.277 403.645 30.277C403.705 30.277 403.765 30.267 403.795 30.277C403.895 30.327 403.845 30.547 403.825 30.627C403.785 30.727 403.705 30.827 403.645 30.917C403.565 31.027 403.495 31.087 403.355 31.157C403.335 31.357 404.645 31.247 404.765 31.227C404.985 31.177 405.255 31.007 405.485 30.977C405.575 30.957 405.645 30.977 405.745 30.957C405.885 30.917 405.975 30.907 406.115 30.887C406.265 30.867 406.385 30.787 406.545 30.777C406.645 30.767 406.745 30.777 406.845 30.777C406.945 30.777 407.055 30.797 407.165 30.777C407.425 30.757 407.675 30.637 407.945 30.607C408.005 30.597 408.065 30.597 408.135 30.597C408.195 30.597 408.255 30.597 408.325 30.597C408.545 30.557 408.775 30.527 408.995 30.487C409.275 30.417 409.575 30.387 409.855 30.337C410.255 30.257 410.695 30.317 411.095 30.327C411.465 30.337 411.835 30.467 412.205 30.507C412.645 30.557 412.125 30.847 411.965 30.937C411.455 31.257 410.875 31.537 410.315 31.747C409.935 31.907 409.625 32.017 409.215 31.997C408.985 31.997 408.815 32.007 408.595 32.087C408.455 32.137 408.345 32.177 408.195 32.197C408.075 32.197 407.955 32.187 407.825 32.187C407.655 32.187 407.465 32.157 407.285 32.177C407.205 32.197 407.155 32.227 407.065 32.237C407.005 32.237 406.945 32.237 406.895 32.227C406.765 32.217 406.645 32.217 406.525 32.267C406.395 32.317 406.395 32.357 406.245 32.367C406.185 32.367 406.125 32.367 406.085 32.367C405.955 32.357 405.825 32.357 405.695 32.407C405.385 32.547 405.055 32.547 404.725 32.557C404.685 32.557 404.655 32.547 404.605 32.557C404.585 32.577 404.565 32.587 404.535 32.617C404.335 32.707 404.115 32.777 403.905 32.837C403.445 33.007 403.025 33.267 402.545 33.407C402.425 33.447 402.365 33.427 402.265 33.447C401.965 33.517 401.665 33.617 401.375 33.697C401.245 33.747 401.095 33.787 400.965 33.827C400.725 33.897 400.565 34.007 400.355 34.117C400.245 34.167 400.135 34.207 400.035 34.267C399.855 34.357 399.695 34.407 399.495 34.427C399.335 34.447 399.185 34.497 399.025 34.527C398.865 34.557 398.805 34.667 398.695 34.747C398.595 34.817 398.445 34.797 398.335 34.857C398.105 34.977 397.895 35.107 397.665 35.227C397.555 35.277 397.465 35.317 397.365 35.357C397.225 35.437 397.055 35.517 396.945 35.627C396.855 35.727 396.855 35.977 396.875 36.127C396.865 36.127 396.865 36.137 396.845 36.137C396.865 36.137 396.865 36.137 396.875 36.137C396.885 36.167 396.885 36.177 396.885 36.197C397.165 36.277 397.415 36.257 397.705 36.217C397.815 36.207 397.925 36.197 398.025 36.157C398.175 36.127 398.295 36.127 398.445 36.097C398.715 36.067 398.975 35.927 399.225 35.817C399.265 35.807 399.295 35.777 399.335 35.747C402.685 34.997 405.845 33.437 409.335 33.197C409.395 33.197 415.175 32.937 419.055 34.737C420.255 35.297 426.095 38.557 423.095 48.087L423.385 47.257C424.065 44.967 424.265 43.777 424.455 42.427L424.465 42.307C424.725 39.937 424.715 39.477 424.665 36.967C424.395 33.417 424.095 32.227 423.305 29.527L423.205 29.347C423.095 29.047 424.135 26.467 418.455 20.787C416.015 18.487 412.525 18.297 409.775 16.637C410.175 16.497 410.175 16.497 410.755 16.617C408.445 15.157 405.625 15.497 403.175 14.557C403.485 14.307 403.645 14.157 404.425 14.187C404.405 14.097 404.385 13.947 404.365 13.857C408.035 13.417 410.655 14.197 412.495 15.187C412.265 15.017 412.035 14.847 411.805 14.657C412.345 14.907 412.615 15.027 413.455 15.647L413.535 15.717L413.315 15.537C409.575 12.687 404.215 9.06697 387.705 15.727L386.455 15.307C386.445 15.277 385.065 16.077 385.045 16.057" fill="#FFD400"></path><path d="M373.076 17.0869L373.646 16.5069C373.406 16.7569 373.236 16.9269 373.076 17.0869ZM419.186 19.4669C419.156 19.4369 419.136 19.4069 419.106 19.3769C419.116 19.3969 419.136 19.407 419.146 19.427L419.186 19.4669ZM411.596 12.4869C411.576 12.4769 411.556 12.477 411.546 12.457L411.596 12.4869ZM373.056 17.1069C373.066 17.0969 373.066 17.0969 373.076 17.0869L373.056 17.1069ZM409.396 19.9869C408.886 19.7369 408.586 19.6069 408.216 19.5169C408.006 19.4569 407.846 19.4369 407.596 19.4169C407.606 19.4169 407.626 19.4369 407.646 19.4469C407.886 19.5869 407.886 19.587 409.296 19.957C409.326 19.977 409.366 19.9869 409.396 19.9869ZM425.116 35.0869C424.736 31.6769 424.536 30.9469 423.776 28.2269L423.326 26.9469C422.226 24.0569 421.026 22.1969 419.856 20.3969C419.486 19.8669 419.466 19.8369 419.016 19.2469C418.996 19.2269 418.986 19.2069 418.966 19.1969H418.976C417.216 16.9969 416.446 16.3569 414.516 14.7169C414.866 14.9369 414.866 14.9369 415.356 15.3269L415.136 15.1269C410.176 10.8269 405.246 9.49694 399.366 8.80694C399.996 8.70694 405.836 8.90695 411.556 12.457C405.996 8.96695 400.826 8.25695 398.056 8.03695C397.396 8.00695 396.636 7.97694 395.766 7.97694C393.266 7.95694 389.856 8.41695 385.386 9.84695L385.406 9.82695C385.406 9.82695 382.556 10.6869 379.916 11.9569C379.846 11.9869 379.776 12.0269 379.716 12.0569C379.676 12.0769 379.646 12.0869 379.606 12.1069C379.416 12.1969 379.236 12.2969 379.066 12.3869C379.036 12.4069 379.006 12.4169 378.966 12.4369C378.846 12.4969 378.736 12.5669 378.616 12.6269C378.356 12.7769 378.086 12.9269 377.846 13.0769C377.666 13.1869 377.476 13.3069 377.286 13.4369L376.866 13.7369C376.526 13.9969 376.086 14.3369 375.756 14.6069C375.046 15.1969 375.016 15.2269 373.806 16.3669C375.846 14.4869 381.586 11.1869 390.826 10.1469C390.376 10.5169 389.846 10.7169 388.496 11.0569C383.696 12.1569 376.446 13.817 373.116 17.067C373.096 17.077 373.076 17.1069 373.056 17.1169C372.706 17.4769 372.416 17.8269 371.526 18.8769C370.696 19.9069 370.646 19.9869 369.426 21.8269L368.826 22.8369C368.796 22.9269 368.776 23.077 368.746 23.177C368.836 23.197 368.946 23.1969 369.026 23.207C368.336 26.0469 368.336 26.0469 368.336 26.0669C369.426 25.177 369.426 25.1769 369.476 25.1469C368.836 26.6069 368.836 26.6069 368.726 26.9969C368.736 26.9969 368.746 26.9769 368.746 26.9769C368.636 27.2369 368.516 27.5969 368.436 27.8669C368.506 27.9469 368.596 28.0669 368.656 28.1569C369.176 27.8169 369.606 27.3669 370.176 27.0869L369.526 27.5469C369.976 27.3569 370.576 27.1169 371.026 26.9469C370.576 27.5369 370.106 28.0769 369.666 28.6569C370.126 28.3769 370.546 28.0169 371.056 27.7969C371.116 27.8569 371.196 27.9369 371.256 27.9969C371.946 27.9069 372.346 27.6869 374.296 26.5569L375.486 25.8769C374.266 26.6569 374.106 26.757 373.766 27.3169C374.206 27.2769 374.206 27.2769 376.656 26.1069C379.876 24.6069 381.966 23.7869 388.276 22.2969H388.256C397.506 20.7669 397.506 20.767 403.766 20.957C401.516 20.507 401.516 20.5069 393.506 20.6169C385.256 21.5369 381.966 22.787 380.536 23.317C378.206 24.207 378.156 24.1869 377.716 24.1269C379.726 22.6469 388.916 19.4369 391.296 19.0969C391.226 19.0969 383.936 20.1369 379.836 22.2569C377.506 23.4469 374.736 24.2569 374.736 24.2669C375.796 23.2769 377.436 22.1469 378.386 21.0569C377.456 20.8269 377.016 21.1369 375.386 21.5069C381.746 13.4269 416.706 11.217 422.766 27.427C422.386 26.8869 418.956 22.0569 412.926 19.5069C411.436 18.8769 411.386 18.8269 411.096 18.5269C411.176 18.4969 411.276 18.4469 411.366 18.4069C410.566 17.9469 406.506 16.6869 404.896 16.9969C410.686 18.4469 419.686 22.7069 419.446 24.9769C417.016 24.1569 415.226 22.2069 412.816 21.3369C415.536 22.8169 420.096 25.3169 420.816 27.7469C420.736 27.7869 420.626 27.8569 420.546 27.9169C420.276 27.7469 419.926 27.4869 419.686 27.2769C419.686 27.2969 419.676 27.3069 419.676 27.3169C419.136 26.7269 415.926 24.227 413.816 23.317C410.826 22.047 407.566 21.7769 404.476 20.8369C407.836 22.1269 411.486 22.5769 414.646 24.3669C418.416 26.4969 421.236 30.2769 421.266 30.3069C426.286 37.0869 424.306 44.0169 423.566 46.6069L422.946 48.2569L423.606 46.537C424.316 44.357 424.376 43.9969 424.886 41.2769C425.226 38.4469 425.206 37.8669 425.116 35.0869ZM390.566 21.5469H390.596C389.826 21.6469 388.796 21.817 388.026 21.927C388.786 21.797 389.806 21.6469 390.566 21.5469ZM401.336 9.43695C400.576 9.34695 399.146 9.18694 397.216 9.14694C397.146 9.14694 397.036 9.14694 396.956 9.14694C399.336 9.08694 401.046 9.22695 402.866 9.62695C402.286 9.53695 402.026 9.50695 401.336 9.43695ZM373.806 16.3569C373.756 16.4069 373.706 16.4569 373.656 16.5069L373.696 16.4769C373.726 16.4369 373.766 16.3969 373.806 16.3569ZM419.016 19.2569C418.996 19.2369 418.976 19.2169 418.966 19.1869C418.986 19.2069 418.996 19.2169 419.006 19.2369C419.006 19.2469 419.016 19.2469 419.016 19.2569Z" fill="#F29100"></path><path d="M423.066 48.2369C423.176 47.9369 423.286 47.6369 423.376 47.3269L423.086 48.1569C423.086 48.1869 423.076 48.2169 423.066 48.2369Z" fill="#004587"></path><path d="M379.135 52.9669C378.875 52.7869 378.595 52.6469 378.305 52.5469C378.305 52.5569 378.635 52.7069 379.135 52.9669Z" fill="#004587"></path><path d="M419.046 34.8069C418.506 34.5569 417.926 34.3469 417.336 34.1769C417.336 34.1769 417.336 34.1869 417.336 34.1969C417.286 34.1769 417.236 34.1569 417.186 34.1369C416.216 33.8569 415.206 33.6669 414.256 33.5269C412.266 38.2369 409.686 40.9969 406.436 43.6369C401.676 47.5269 405.796 46.3869 405.846 46.3669C406.306 46.1869 406.726 45.9169 406.916 45.7869C402.426 50.7869 389.596 56.3269 380.106 52.3669C377.596 51.3169 375.886 50.6869 380.676 53.6569C380.626 53.6569 380.576 53.6369 380.536 53.6269C382.576 54.6469 385.096 56.0269 383.816 56.0769C383.816 56.0969 383.816 56.1469 383.816 56.1669L383.756 56.1469L383.816 56.1769C383.866 56.2169 383.866 56.2169 387.326 57.5069C387.116 57.5869 386.926 58.3469 389.836 58.6369C393.216 58.9669 396.256 58.5869 399.076 57.7669C393.146 61.8769 386.266 64.4869 379.456 63.1569C379.636 63.2269 379.876 63.3169 380.056 63.3869C381.646 63.9469 382.666 64.1468 384.236 64.2668C384.226 64.3368 384.216 64.4369 384.216 64.5369C385.326 65.1169 386.796 64.7469 387.036 64.6169C387.676 64.2969 387.906 64.2269 391.996 63.9369C391.086 64.6769 389.816 64.3269 388.876 64.9669C388.906 65.0969 389.016 65.2669 389.126 65.3469C394.286 64.6369 399.606 63.9169 412.786 53.1969C412.946 53.0669 413.186 52.9369 413.366 52.8669L413.336 52.8869C412.366 53.8069 412.366 53.8069 404.156 60.7769C402.196 62.4369 399.366 62.6269 397.536 64.5069C397.556 64.5769 397.596 64.6669 397.616 64.7469L397.556 64.7869L397.646 64.7668C399.456 65.1768 400.896 63.9268 402.556 63.6768C402.516 63.7268 402.466 63.1869 395.916 66.1069C395.916 66.1769 395.856 66.0669 395.896 66.5369C398.216 66.0069 402.826 65.4069 405.876 63.5869C410.406 61.0969 418.946 53.5869 422.906 45.3669C423.006 45.1569 423.176 44.8969 423.356 44.7669L423.366 44.9869C423.516 45.2769 423.516 45.2769 423.096 46.7669C423.426 46.0769 423.666 45.3669 423.876 44.6469C424.606 37.8069 420.096 35.2869 419.046 34.8069ZM414.166 41.4069C413.986 41.6869 413.796 41.9869 413.596 42.2869C412.666 43.6869 410.836 43.9969 409.816 45.3069C409.576 45.1669 409.506 45.1269 409.106 45.3469C408.996 44.7169 410.026 43.8569 409.206 43.4669C410.036 41.6769 411.486 40.2869 412.716 38.7569C413.016 40.0569 415.536 38.0769 415.616 37.9869C415.676 37.8969 415.746 37.7769 415.806 37.6869C415.496 38.7169 414.936 39.9869 414.166 41.4069Z" fill="url(#paint1_linear_1905_26398)"></path><path d="M423.395 47.0969L423.405 47.0669L423.415 47.0269C423.475 46.7869 423.525 46.5569 423.575 46.3269C421.665 52.1869 417.545 56.6369 415.005 58.9469C415.355 58.7169 415.615 58.5169 415.975 58.1769C415.435 58.7369 415.275 58.9169 415.145 59.1369C415.475 58.8469 415.765 58.5969 416.105 58.3369C416.005 58.5469 416.005 58.5469 413.955 60.5669C416.505 58.3169 420.655 54.6569 422.915 48.6669L423.085 48.1569C423.205 47.7969 423.305 47.4369 423.395 47.0969Z" fill="#004587"></path><path d="M422.976 48.5068L422.936 48.6168C422.946 48.5868 422.966 48.5468 422.976 48.5068Z" fill="#004587"></path><path d="M380.535 53.6268C380.015 53.3668 379.525 53.1368 379.135 52.9568C379.595 53.2268 380.015 53.4968 380.535 53.6268Z" fill="#004587"></path><path d="M422.917 48.6567L422.896 48.7067L422.927 48.6167L422.966 48.5067L423.026 48.3367C423.036 48.2967 423.047 48.2667 423.057 48.2367C423.067 48.2167 423.076 48.1867 423.076 48.1567L422.917 48.6567Z" fill="#F29100"></path><path d="M421.576 36.6869C420.426 41.2769 419.036 43.3969 417.006 46.4969C415.866 48.2269 413.626 48.6169 412.366 50.1969C412.066 50.0269 411.976 49.9769 411.486 50.2469C411.356 49.4669 412.606 48.4169 411.616 47.9469C413.286 44.3069 417.076 42.0269 418.236 38.0469C417.786 38.6169 417.456 39.2769 417.006 39.8469C417.516 38.0969 418.316 36.4469 418.686 34.6569C418.596 34.6169 418.506 34.5769 418.416 34.5469C418.316 34.7269 418.186 34.9569 418.016 35.2869C415.546 41.3569 412.316 44.8469 408.226 48.1869C402.386 52.9569 407.446 51.5569 407.506 51.5369C408.076 51.3069 408.576 50.9769 408.816 50.8269C401.846 58.5769 378.556 67.3769 367.836 52.3569C367.936 52.5069 368.066 52.7269 368.166 52.8869C370.766 56.8369 370.766 56.8369 376.646 60.4769C375.546 60.2869 374.756 59.4369 373.716 59.1169C373.736 59.1469 376.246 62.4069 383.736 63.2669C391.726 64.1869 393.996 63.5669 396.396 62.9169C398.446 62.3669 400.286 62.1669 400.296 62.1669L400.256 62.1869C394.356 63.9969 394.356 63.9969 387.776 64.4169C386.496 64.4969 385.266 64.2269 384.046 63.9469C382.876 63.6769 381.706 63.4169 380.496 63.4569C380.496 63.4869 380.496 63.5369 380.486 63.5669L380.406 63.5569L380.486 63.5769C380.546 63.6369 380.546 63.6369 384.786 65.2169C384.526 65.3169 383.266 65.4869 378.046 63.2469C378.086 63.2769 384.306 66.2369 387.856 66.5969C399.506 67.7369 407.866 62.0969 415.966 56.6469C415.966 56.6869 415.956 56.7469 415.946 56.7869C416.046 56.8069 416.166 56.8169 416.276 56.8269C416.216 57.0069 416.216 57.0069 415.346 58.0569C417.256 56.5169 418.236 54.1269 420.256 52.6669C420.076 53.5169 413.756 63.6669 399.686 66.9269C400.366 66.8269 400.576 66.7969 401.326 66.6069C400.356 66.8769 400.326 66.9069 399.916 67.0369C400.176 66.9969 400.176 66.9969 401.486 66.7369C400.716 67.1069 399.826 67.2869 397.696 67.7269C409.876 65.6169 418.806 58.6969 422.846 48.2169C423.396 46.3969 423.626 45.6569 423.846 44.5069C424.246 40.6369 422.946 38.1769 421.576 36.6869Z" fill="#002F63"></path><path d="M376.905 48.4771C376.045 48.6071 375.245 48.7971 374.545 48.9171C374.705 49.4171 375.005 49.9671 375.375 50.5571C375.655 50.0371 376.005 49.5971 376.315 49.2071C376.525 48.9571 376.725 48.7171 376.905 48.4771ZM334.715 48.8171C334.215 48.0071 333.785 46.2971 333.615 43.9471C326.405 45.0771 323.105 40.4071 323.355 36.2271C323.545 33.0371 324.345 31.7271 327.935 28.8971C324.395 28.3471 322.305 25.2971 322.615 22.7071C322.875 20.5771 323.215 20.0171 323.705 19.3171L324.095 18.7471L324.665 19.1371C324.685 19.1571 327.315 20.9271 328.425 21.4171C328.445 21.4271 328.545 21.4671 328.765 21.4971C328.985 21.5371 329.245 21.5771 329.545 21.6271C330.165 21.7271 330.925 21.8571 331.675 22.0871C333.185 22.5371 334.945 23.4471 335.445 25.4771C335.915 27.3671 335.535 28.7871 334.575 30.0471C334.115 30.6471 333.535 31.2071 332.885 31.7571C332.255 32.2971 331.525 32.8671 330.735 33.4971C329.585 34.4271 329.035 35.5271 329.145 36.5571C329.285 37.8271 330.305 38.4171 331.445 38.4171C332.875 38.4171 334.245 37.6571 335.815 36.5571C336.595 36.0071 337.395 35.4071 338.215 34.8271C339.055 34.2471 339.945 33.6871 340.895 33.2371C341.725 32.8471 342.475 32.6171 343.175 32.4771C343.845 32.3371 344.465 32.2771 345.045 32.2171C346.175 32.1071 347.045 32.0071 347.995 31.3971C348.285 31.2071 348.625 30.9171 349.025 30.5471C349.445 30.1671 349.885 29.7471 350.365 29.3671C351.355 28.5671 352.595 27.7871 354.125 27.6971C354.515 27.6771 354.965 27.6571 355.375 27.6371C355.795 27.6071 356.085 27.5571 356.235 27.5171C356.345 27.4771 356.505 27.3671 356.775 27.1271C357.045 26.8771 357.345 26.5671 357.695 26.2471C358.415 25.5671 359.385 24.7971 360.765 24.3371C362.535 23.7471 363.735 23.3871 364.875 22.9171C365.975 22.4571 367.015 21.8971 368.505 20.8871C369.465 20.2271 373.195 18.8971 377.155 21.5671C378.335 22.3671 379.295 23.1071 380.405 24.0171C381.495 24.9071 382.745 25.9971 384.505 27.4671C385.055 28.0071 385.665 28.7371 386.205 29.4071C386.735 30.0771 387.245 30.7571 387.665 31.2771C389.565 33.6071 390.995 35.4171 391.305 37.6471C391.855 41.5371 392.215 43.7771 393.745 47.6971C393.745 47.7171 393.775 47.7671 393.855 47.8571C393.935 47.9571 394.025 48.0571 394.135 48.1671L394.485 48.5371C394.615 48.6671 394.745 48.8171 394.845 48.9471C395.105 49.2871 395.325 49.6671 395.525 50.0371C395.715 50.3871 395.905 50.7671 396.125 51.1371C396.535 51.8371 396.995 52.4371 397.705 52.8371C398.615 53.3471 398.855 53.4771 399.225 53.8271C399.885 54.4471 399.545 55.3871 399.005 55.8671C398.665 56.1671 398.205 56.3771 397.625 56.4871C397.895 57.4871 397.115 58.5671 395.475 58.6171C392.135 58.7271 389.935 57.1171 389.035 56.3071L388.915 56.3971C388.555 56.6571 388.015 57.0471 387.315 57.3271C386.505 57.7171 385.585 57.7071 384.835 57.6471C384.465 57.6271 384.085 57.5871 383.715 57.5671C383.365 57.5471 383.075 57.5571 382.815 57.5971C382.215 57.7071 381.515 57.9571 380.805 58.1971C380.065 58.4371 379.235 58.6971 378.455 58.7171C377.015 58.7771 376.105 58.1971 375.625 57.2771C375.515 57.0771 375.445 56.8671 375.375 56.6471C374.825 57.6971 374.175 58.5671 373.615 58.8271C373.085 59.0871 372.385 59.1771 371.865 59.2471C371.605 59.2771 371.355 59.3071 371.145 59.3271C371.065 59.3371 370.985 59.3571 370.915 59.3671C368.595 60.4571 364.915 61.8271 363.465 61.8771C361.835 61.9371 360.155 60.6271 359.225 58.7871C358.515 58.8371 357.655 58.6471 357.335 58.3171C356.425 57.4071 355.125 54.9171 355.065 53.9071C355.025 53.2271 355.465 52.7871 355.885 52.5571C356.295 52.3271 356.805 52.1971 357.275 52.1171C358.215 51.9671 359.275 51.9671 359.755 51.9671C359.945 51.9671 360.095 51.9671 360.225 51.9671C360.375 51.9671 360.555 51.9771 360.745 52.0371C360.825 52.0571 360.915 52.0971 361.005 52.1271C361.355 51.6771 361.965 51.4971 362.425 51.4371C362.525 51.4171 362.625 51.4171 362.725 51.4071C362.465 51.1871 362.215 50.9471 361.975 50.7171C361.835 50.7871 361.685 50.8271 361.545 50.8671C361.115 51.0071 360.555 51.0971 359.935 51.1471C358.025 51.2871 354.795 50.9771 354.515 50.9771C354.025 51.0071 353.095 51.1671 352.135 51.3171C351.365 51.4271 350.495 51.5371 349.785 51.5271C349.445 52.1971 349.125 52.8771 348.845 53.4571C348.505 54.1471 348.175 54.7971 347.895 55.1371C347.455 55.6871 346.925 56.0271 346.465 56.2571C346.255 56.3571 346.035 56.4571 345.835 56.5471C345.675 56.6171 345.535 56.6771 345.415 56.7571C345.025 56.9971 344.345 57.4071 343.615 57.7271C342.925 58.0371 342.015 58.3571 341.255 58.2271C339.465 57.9471 338.185 57.8171 337.575 57.7871C337.315 57.7671 337.035 57.8571 336.665 58.1071C336.465 58.2371 336.265 58.3971 336.075 58.5571C335.855 58.7371 335.635 58.9371 335.405 59.1271C334.475 59.9171 333.235 60.8571 331.495 60.7271C331.345 60.7171 331.005 60.6871 330.665 60.6271C330.505 60.5971 330.325 60.5671 330.135 60.5171C330.015 60.6871 329.905 60.8571 329.795 61.0571C329.695 61.2271 329.595 61.3971 329.495 61.5571C329.385 61.7371 329.275 61.9171 329.145 62.0771C328.575 62.8371 327.765 63.3871 326.285 63.4571C326.225 63.4671 326.115 63.4571 325.945 63.4371C325.845 63.4171 325.705 63.3971 325.555 63.3671C325.265 63.3171 324.905 63.2471 324.545 63.1671C324.195 63.0971 323.845 63.0271 323.555 62.9771L323.215 62.9171C323.115 62.9971 323.025 63.0671 322.935 63.1071C322.805 63.1871 322.625 63.2571 322.395 63.2571C322.195 63.2571 321.425 63.1871 320.675 63.0071C320.295 62.9171 319.875 62.7871 319.525 62.5871C319.195 62.4071 318.775 62.0871 318.645 61.5671C318.465 60.8371 318.585 60.3571 318.825 59.9171C318.905 59.7771 319.005 59.6271 319.095 59.4571C319.175 59.3171 319.235 59.1671 319.295 58.9671C319.385 58.6371 319.435 58.3071 319.505 57.9871C319.575 57.6471 319.655 57.2671 319.795 56.9071C320.115 56.1171 320.715 55.4971 321.875 55.3771L321.955 55.3671C322.715 53.4671 324.785 52.4271 326.075 52.4771H326.135C327.135 52.6871 327.745 53.2671 328.095 53.8971C328.325 53.6871 328.505 53.4771 328.635 53.2671C328.675 53.1971 328.715 53.0971 328.765 52.9771C328.815 52.8371 328.865 52.6771 328.915 52.5071C329.035 52.1371 329.165 51.7171 329.315 51.3371C329.605 50.6071 330.185 49.5271 331.395 49.5271C332.435 49.5371 333.505 49.3671 334.205 49.0871C334.475 48.9971 334.645 48.8971 334.715 48.8171Z" fill="white"></path><path d="M396.775 54.0271C395.155 53.0771 394.505 51.2871 393.505 49.8771C393.155 49.3671 392.525 49.0371 392.205 48.5271C391.045 45.3571 390.035 42.1871 389.735 38.5671C389.495 37.6671 389.305 36.7471 388.815 35.9171C387.355 33.5371 385.455 31.3671 383.615 29.1771C383.455 29.0171 383.185 28.8771 383.095 28.6571L376.675 23.3271C375.895 22.7271 374.995 22.3471 374.105 21.9471C372.755 21.4271 370.905 21.5371 369.585 22.1071C368.205 22.8371 366.955 23.8971 365.495 24.3771C363.385 25.3271 361.005 25.5171 359.185 27.1371C358.135 28.0471 357.235 29.4871 355.665 29.2471C353.905 29.1671 352.335 29.8171 351.015 30.8971C349.825 31.9771 348.685 33.2471 347.145 33.5471C345.795 34.1171 344.145 33.8471 342.765 34.3571C340.575 34.8971 338.835 36.6371 336.975 37.9571C335.105 39.0371 333.315 40.1971 330.985 40.1471C329.465 40.0271 328.015 38.9771 327.525 37.5171C327.065 35.8371 327.575 34.1071 328.905 32.9671C330.285 31.3171 332.475 30.3371 333.565 28.4471C334.135 27.4471 334.055 25.8171 333.295 24.8671C331.865 23.3871 329.805 23.3271 327.935 22.8671C326.745 22.5471 325.825 21.6171 324.765 21.0571C324.355 21.6771 324.225 22.3471 324.275 23.1171C324.495 24.8171 325.785 26.3571 327.415 26.9571C328.365 27.3671 329.445 27.0671 330.415 27.2771C330.685 27.3871 330.955 27.6571 330.985 27.9571C330.935 28.2271 330.905 28.4971 330.665 28.6871C329.145 29.9571 327.545 31.1771 326.275 32.7471C324.925 34.2171 324.755 36.7771 325.455 38.6271C326.245 40.7371 328.435 42.1171 330.545 42.3971C332.085 42.6371 333.475 42.2271 334.875 41.9371C335.065 41.9371 335.145 42.1271 335.225 42.2271C335.365 43.4771 335.175 44.5871 335.445 45.7271C335.685 46.7771 336.045 47.5171 336.425 48.5371C336.485 48.8871 336.425 49.2671 336.185 49.5371C335.395 50.1371 334.585 50.5371 333.725 50.9171L331.615 51.0471L331.205 51.2371C330.415 52.1471 330.395 53.0971 329.905 54.1371C329.255 55.2171 328.065 55.7371 327.065 56.3471C326.735 56.8671 326.385 57.4071 325.935 57.8171C325.585 58.1471 325.145 58.2271 324.685 58.2771C323.955 59.1171 323.795 60.2771 323.605 61.4171C324.795 61.5271 326.035 62.1771 327.205 61.5271C328.205 61.0671 328.425 59.8471 329.185 59.1171C329.775 58.4671 330.675 58.9571 331.375 59.0871C332.435 59.1471 333.195 58.3871 334.085 58.0271C334.705 57.6271 335.225 56.9171 335.875 56.5171C337.115 55.9171 338.855 56.2471 340.155 56.4871C341.185 56.7571 342.265 56.5871 343.165 56.1871C344.005 55.6671 344.785 55.0271 345.735 54.8071C346.575 54.3771 346.985 53.4171 347.335 52.6371C347.605 51.9071 348.315 51.3371 348.255 50.4971C348.035 50.3071 347.795 49.8971 347.465 49.9271C347.065 50.4971 346.765 51.0971 346.305 51.6371C344.345 54.3071 342.805 54.5571 338.825 54.5571C335.875 54.4471 333.225 55.3371 331.195 57.6371C331.055 57.7271 330.865 57.6671 330.765 57.5571C330.685 57.2371 330.955 56.6971 331.095 56.4571C332.905 53.8771 335.725 53.2871 338.705 53.2371C340.335 53.1271 341.875 52.8571 343.255 52.1471C344.795 51.3671 345.855 50.1371 346.505 48.6271C346.855 46.9271 346.985 45.0771 347.425 43.4571C347.475 43.2971 347.885 43.1771 348.015 43.2271C348.185 43.2571 348.505 43.4071 348.505 43.5971C348.205 45.2771 347.665 47.2571 348.325 48.8771C349.625 50.5871 352.035 49.6671 353.795 49.5771C355.635 49.4171 357.115 49.5571 358.875 49.6671C359.745 49.6371 360.385 49.8571 361.055 49.3171C361.245 49.0171 361.325 48.6171 361.265 48.2871C361.215 47.8071 360.805 47.5071 361.265 47.0971C361.405 46.9971 361.805 47.0571 361.905 47.2071C362.155 47.8771 362.265 48.6071 362.695 49.2071C363.565 50.3171 364.835 51.1871 366.025 51.8071C367.165 52.5971 368.105 53.7071 368.185 55.0871C368.185 55.7871 367.535 56.2771 366.995 56.6071C366.075 57.0571 365.075 57.4471 363.995 57.3471C362.555 56.6371 362.175 55.1171 361.225 54.0171C360.745 53.4671 360.015 53.3671 359.275 53.4171C358.495 53.4971 357.705 53.5271 357.005 53.7671C356.815 53.9371 356.755 54.1671 356.785 54.4171C357.275 55.3171 357.815 56.1871 358.355 57.0671C358.975 57.4571 359.845 56.8571 360.385 57.5371C360.845 58.2471 361.145 59.0771 361.845 59.6171C362.525 60.2071 363.555 60.4771 364.445 60.1071C366.445 59.4871 368.455 58.8371 370.325 57.8271H370.945C371.705 57.7571 372.545 57.7971 373.085 57.2371C373.685 56.3571 374.165 55.5571 374.625 54.6271C375.095 54.0071 374.875 53.0671 374.685 52.3871C373.765 51.2571 373.255 49.9771 372.765 48.6771C372.305 48.5371 371.895 48.2671 371.385 48.2971C371.145 48.4071 370.785 48.3471 370.655 48.6271L372.795 52.8471C372.925 53.1671 373.095 53.6271 373.015 54.0671C372.715 54.9571 372.255 55.8271 371.525 56.4771C371.385 56.5571 371.225 56.6371 371.115 56.4471C371.365 55.5271 371.795 54.5271 371.735 53.4671L369.645 49.7071C369.405 49.1971 368.975 48.7371 368.995 48.1371C368.995 47.8671 369.235 47.6671 369.455 47.5571C370.375 47.2571 371.485 47.3171 372.195 46.5871C373.115 45.1471 373.305 43.7471 373.555 42.0371C373.605 41.9271 373.825 41.7171 373.995 41.7171C374.155 41.6671 374.345 41.8971 374.425 41.9771C374.695 43.8471 374.315 45.7371 373.235 47.2071C373.185 47.3971 373.105 47.6371 373.315 47.7671C374.345 48.0971 375.425 47.7671 376.295 47.3071C377.405 47.3271 378.435 47.0571 379.435 46.8971C379.545 46.9571 379.655 47.0571 379.655 47.1671C378.975 47.9271 378.595 48.7671 378.415 49.7371C377.595 50.5771 376.435 51.3171 376.355 52.5271C376.495 53.1171 377.005 52.5571 377.355 52.6171C377.525 52.6371 377.625 52.7771 377.625 52.9371L376.815 54.1271C376.375 54.8271 376.895 55.6371 376.895 56.3171C377.085 56.8571 377.735 57.1271 378.305 57.1271C379.525 57.0671 380.605 56.6171 381.685 56.2371C382.875 55.7271 384.365 55.7471 385.665 55.9571C386.935 55.8771 387.885 55.0371 388.835 54.1971C389.355 54.1971 389.805 54.5471 390.155 54.9271C391.625 56.4971 393.515 57.1771 395.655 57.1171L395.845 57.0071C395.975 56.8671 395.925 56.6271 395.765 56.5171L394.495 55.8671C393.605 55.2971 392.495 54.5471 392.195 53.5371C391.925 52.6471 391.435 51.6671 390.895 50.8071C390.705 50.3771 390.275 50.0271 390.085 49.5971C390.145 49.5371 390.195 49.4571 390.275 49.4871C391.685 49.9671 392.525 51.3571 393.175 52.6071C394.205 54.0371 395.685 55.2571 397.645 54.9371L397.805 54.7971C397.885 54.6871 397.855 54.5571 397.805 54.4671L396.775 54.0271ZM375.525 34.9471L375.515 34.9971L375.475 35.0371C375.385 35.1271 375.215 35.1971 375.035 35.0771L374.975 35.0471L374.965 34.9771C374.745 33.8571 374.505 32.7371 374.075 31.6971C374.025 31.5671 373.935 31.4271 373.835 31.2771C373.735 31.1271 373.615 30.9771 373.525 30.8271C373.325 30.5071 373.175 30.1271 373.415 29.6771L373.445 29.6271C373.675 29.4071 374.045 29.3771 374.305 29.4771L374.345 29.5071C374.815 29.8271 375.105 30.3371 375.345 30.7571C375.885 32.0071 375.885 33.6571 375.525 34.9471ZM385.885 52.8671L385.865 52.8871L385.835 52.8971C385.295 53.0671 384.705 53.1271 384.125 53.0971H384.095L384.065 53.0771C384.025 53.0571 383.985 53.0471 383.945 53.0271C383.905 53.0071 383.855 52.9771 383.815 52.9371C383.725 52.8671 383.635 52.7371 383.695 52.5571C383.955 51.7771 384.705 50.9971 385.555 50.8171H385.595C385.655 50.8171 385.715 50.8171 385.775 50.8171C385.835 50.8171 385.915 50.8271 385.985 50.8371C386.145 50.8871 386.295 51.0071 386.335 51.2271C386.385 51.7471 386.405 52.4771 385.885 52.8671ZM389.225 45.4571C389.185 45.5471 389.165 45.6071 389.145 45.6871C389.125 45.7671 389.095 45.8471 389.065 45.9271C389.005 46.0971 388.885 46.2871 388.635 46.3471C388.355 46.4271 388.125 46.2271 388.125 45.9571C388.095 45.5971 388.085 45.2371 388.025 44.8871C387.965 44.5471 387.865 44.2471 387.675 43.9771C387.555 43.8471 387.435 43.6971 387.305 43.5371C387.175 43.3871 387.045 43.2271 386.905 43.0871C386.635 42.8171 386.365 42.6371 386.045 42.6271C385.825 42.6971 385.625 42.8671 385.435 43.0771C385.335 43.1871 385.235 43.3071 385.145 43.4271L384.895 43.7671C384.795 43.9371 384.585 43.8871 384.505 43.8571L384.445 43.8271L384.425 43.7671C384.255 43.3271 384.335 42.9271 384.495 42.5571C384.635 42.2271 384.845 41.8971 384.965 41.5771L385.005 41.5171C385.095 41.4271 385.155 41.2971 385.235 41.1071C385.305 40.9171 385.365 40.7171 385.445 40.5471C385.635 40.1471 385.955 39.8371 386.585 40.1071C386.975 40.3171 387.215 40.6371 387.405 40.9371C387.495 41.0971 387.585 41.2471 387.675 41.3971C387.765 41.5371 387.865 41.6771 387.985 41.7871C388.905 42.8271 389.535 43.9971 389.225 45.4571Z" fill="#DB0A40"></path><path d="M322.046 57.1072C321.616 57.3272 321.156 57.7372 321.046 58.2272C320.916 59.0872 321.106 59.8972 320.426 60.5172C320.396 60.6972 320.236 60.8772 320.396 61.0372C320.986 61.2272 321.556 61.4672 322.286 61.5472C322.606 60.4872 322.856 59.3272 323.236 58.4072V58.1372C322.916 57.7372 322.586 57.2272 322.046 57.1072Z" fill="#DB0A40"></path><path d="M363.115 54.247C363.655 54.847 363.625 55.767 364.255 56.227C365.075 56.367 365.805 56.037 366.425 55.557C366.775 55.257 366.265 54.877 366.205 54.527C365.855 54.007 366.095 52.987 365.235 52.957C364.365 53.087 363.505 53.117 362.635 53.117L362.385 53.287C362.225 53.777 362.985 53.777 363.115 54.247Z" fill="#DB0A40"></path><path d="M324.887 57.0371C325.727 56.5471 326.267 55.6271 326.697 54.8471C326.617 54.5471 326.317 54.3271 326.077 54.1171C325.917 53.9771 325.667 54.0971 325.477 54.1371C324.887 54.6471 324.257 55.0671 323.607 55.4671C323.337 55.6571 323.447 56.0571 323.387 56.3571C323.387 56.6271 323.707 56.8171 323.877 56.9871C324.187 57.1071 324.567 57.1371 324.887 57.0371Z" fill="#DB0A40"></path><path d="M99.7856 7.29688L117.066 7.33687L116.996 67.6769L96.8256 67.6069C95.8656 67.8169 94.7056 67.9969 93.4356 67.9669C86.3356 67.9669 80.0556 65.0969 76.7556 57.0669C72.1556 65.5669 65.1156 68.7269 57.1456 68.7269C54.3356 68.7269 52.0056 68.2569 50.0856 67.4969C50.1556 67.5369 0.515625 67.4269 0.515625 67.4269L0.605621 9.94687L24.6156 9.97687C33.9256 9.97687 42.7056 17.1169 42.7056 28.6669C42.7056 33.6269 40.3356 37.5469 40.3356 37.5469C43.6656 31.0669 50.6056 27.9869 57.3756 28.0169C64.3456 28.0169 71.6856 30.1269 75.9356 40.8469C79.1756 32.8069 83.7056 28.3469 93.9556 28.4269C96.2856 28.4269 97.3456 28.7569 99.7456 29.3669L99.7856 7.29688Z" fill="white"></path><path d="M201.956 7.65698L236.216 7.68698L236.136 67.807L192.836 67.737C189.736 68.827 186.496 69.477 184.116 69.477C178.526 69.507 168.896 67.597 166.126 58.537C164.116 63.387 155.626 67.707 151.636 67.667L123.816 67.627L123.946 10.437L146.386 10.477C155.526 10.477 164.276 14.967 164.236 26.697C164.256 27.537 164.096 28.757 163.806 29.997L201.886 30.027L201.956 7.65698Z" fill="white"></path><path d="M103.515 35.7668C100.815 33.1568 97.2648 31.4968 93.3548 31.4968C85.0248 31.4968 78.2548 38.8768 78.2148 48.0068C78.2148 57.0968 84.9948 64.5568 93.3048 64.5568C97.2548 64.5568 100.815 62.8968 103.515 60.2168L103.475 64.2668H113.505L113.575 10.7668L103.525 10.7268L103.515 35.7668ZM96.1948 56.4468C92.0848 56.4468 88.7548 52.8268 88.7748 48.3368C88.7948 43.8568 92.1048 40.2268 96.2148 40.2268C100.315 40.2568 103.585 43.8868 103.585 48.3768C103.595 52.8168 100.275 56.4468 96.1948 56.4468Z" fill="#DB0A40"></path><path d="M57.2261 31.487C47.9961 31.447 40.5161 39.017 40.4961 48.367C40.4761 57.637 47.9061 65.237 57.1461 65.277C64.1761 65.277 69.6761 62.127 72.5161 57.087L64.3361 53.317C63.2861 55.567 60.8461 57.157 58.0061 57.127C54.1861 57.127 51.1161 54.337 51.1161 50.867C51.1361 50.617 51.0461 50.717 51.0661 50.497L73.3761 50.567C73.4761 49.847 73.5161 49.127 73.4761 48.397C73.6061 37.497 66.4161 31.487 57.2261 31.487ZM51.0861 44.707C51.0861 41.267 53.8761 38.517 57.2661 38.547C60.6561 38.547 63.4361 41.307 63.4061 44.707H51.0861Z" fill="#DB0A40"></path><path d="M38.7552 28.4868C38.7352 20.2268 31.9452 13.5268 23.5652 13.5268C23.3152 13.5268 22.1152 13.5668 21.8852 13.5668L4.15524 13.4868L4.11523 64.0468H14.8252L14.9152 22.2468L21.3252 22.2168C25.3152 22.2168 28.2952 25.1868 28.2952 28.8368C28.2952 32.4668 25.0752 35.4368 21.1052 35.4368L18.6052 35.4668L18.5852 47.5268L29.3052 64.1068H41.9452L27.1552 42.9668C33.7952 41.3768 38.7452 35.5068 38.7552 28.4868Z" fill="#DB0A40"></path><path d="M156.256 36.7768C159.006 34.2068 160.726 30.7268 160.726 26.9268C160.726 23.5268 159.416 20.3368 157.066 17.8668C154.656 15.1868 150.416 14.0668 144.656 14.0668L127.386 13.9868L127.316 64.2968H149.626C158.136 64.1868 165.056 57.6668 165.086 49.7768C165.066 44.0568 163.006 39.9268 156.256 36.7768ZM147.776 55.4968H138.146L138.176 22.6868L144.896 22.7268C147.846 22.6868 150.256 25.1168 150.236 28.0868C150.256 31.0568 147.826 33.4168 144.876 33.4168H141.366V42.4668L147.776 42.5468C151.346 42.5068 154.086 45.4468 154.086 49.0268C153.916 52.7168 151.646 55.2768 147.776 55.4968Z" fill="#DB0A40"></path><path d="M222.766 11.2769L222.676 64.4868H232.776L232.876 11.3169L222.766 11.2769Z" fill="#DB0A40"></path><path d="M190.136 51.627C190.136 54.667 187.546 57.137 184.376 57.137C181.156 57.137 178.596 54.677 178.596 51.627L178.616 33.447L168.616 33.407L168.596 53.547C168.586 60.347 175.606 65.897 184.296 65.897C193.006 65.927 200.076 60.387 200.076 53.577L200.106 33.437H190.146L190.136 51.627Z" fill="#DB0A40"></path><path d="M205.635 64.4469L215.735 64.4868L215.805 11.3169L205.685 11.2769L205.635 64.4469Z" fill="#DB0A40"></path><path d="M424.965 127.537C424.965 134.837 420.035 140.167 413.225 140.167C409.475 140.167 406.365 138.587 404.595 136.027V139.577H399.865V106.387H404.945V118.717C406.765 116.297 409.725 114.817 413.275 114.817C420.035 114.817 424.965 120.187 424.965 127.537ZM419.835 127.437C419.835 122.657 416.775 119.397 412.245 119.397C407.755 119.397 404.795 122.647 404.795 127.487C404.795 132.327 407.805 135.527 412.295 135.527C416.775 135.527 419.835 132.267 419.835 127.437Z" fill="white"></path><path d="M450.705 115.407L438.625 147.607H433.005L436.115 139.467L427.045 115.397H432.475L438.935 133.937L445.295 115.397H450.705V115.407Z" fill="white"></path><path d="M524.534 133.767C524.274 133.767 524.124 133.677 524.124 133.507C524.124 133.417 524.204 133.297 524.344 133.177C526.384 131.527 539.854 120.657 541.914 118.967C545.484 116.087 546.234 114.687 546.234 112.647C546.234 111.377 545.634 110.147 544.744 109.397C543.664 108.477 542.044 107.977 539.434 107.977H516.474V108.347C516.474 109.537 516.734 110.827 517.324 111.687C518.254 113.017 520.004 113.787 522.374 113.787H537.444C537.714 113.787 537.854 113.867 537.854 114.007C537.854 114.127 537.784 114.207 537.624 114.327C535.494 116.057 523.054 126.097 519.954 128.567C516.374 131.447 515.654 132.877 515.654 134.917C515.654 136.177 516.254 137.407 517.154 138.157C518.234 139.077 519.854 139.587 522.484 139.587H546.494V139.357C546.494 137.657 546.014 136.187 544.994 135.257C543.824 134.177 542.304 133.777 539.464 133.777H524.534V133.767ZM628.874 131.317C628.804 131.317 628.744 131.277 628.674 131.187C623.914 124.987 615.174 113.567 613.284 111.077C611.284 108.467 609.714 107.607 607.644 107.607C606.114 107.607 604.874 108.167 604.024 109.077C603.074 110.097 602.594 111.667 602.594 113.457V133.887C602.594 135.927 603.124 137.327 604.144 138.347C605.224 139.437 606.764 140.037 608.624 140.037C608.774 140.037 608.864 140.037 608.994 140.027V116.597C608.994 116.427 609.074 116.337 609.184 116.337C609.274 116.337 609.324 116.377 609.384 116.477C612.174 120.107 622.764 133.957 624.794 136.567C626.804 139.167 628.364 140.047 630.424 140.047C631.964 140.047 633.204 139.487 634.054 138.587C635.004 137.567 635.484 136.007 635.484 134.207V113.767C635.484 111.727 634.944 110.327 633.924 109.287C632.844 108.207 631.314 107.607 629.434 107.607C629.304 107.607 629.204 107.607 629.064 107.617V131.057C629.064 131.237 628.984 131.317 628.874 131.317ZM577.084 127.247V133.897C577.084 135.937 577.624 137.337 578.644 138.357C579.714 139.447 581.334 140.047 583.244 140.047C583.394 140.047 583.574 140.047 583.724 140.037V125.867C583.724 119.767 582.064 115.667 579.104 112.467C576.054 109.187 571.494 107.287 566.214 107.287C556.084 107.287 549.074 114.707 549.074 124.357C549.074 133.847 555.574 140.177 563.994 140.177C570.494 140.177 574.394 136.317 574.394 131.787C574.394 130.097 573.864 128.287 572.704 126.557C571.764 131.427 569.074 134.107 564.734 134.107C560.104 134.107 556.024 130.597 556.024 124.187C556.024 117.887 560.104 113.587 566.224 113.587C569.284 113.587 571.754 114.657 573.614 116.487C575.814 118.667 577.084 121.987 577.084 127.247ZM596.954 101.107C596.954 98.957 595.194 97.197 593.034 97.197C590.874 97.197 589.114 98.947 589.114 101.107C589.114 103.277 590.874 105.037 593.034 105.037C595.194 105.037 596.954 103.277 596.954 101.107ZM596.354 140.037V113.657C596.354 111.597 595.814 110.207 594.804 109.187C593.724 108.087 592.124 107.497 590.204 107.497C590.054 107.497 589.874 107.497 589.734 107.517V133.897C589.734 135.937 590.274 137.337 591.284 138.357C592.354 139.447 593.964 140.047 595.874 140.047C596.014 140.047 596.194 140.047 596.354 140.037Z" fill="white"></path><path d="M500.595 114.297C500.595 110.477 497.655 107.577 493.455 107.907C484.545 108.587 483.395 118.717 489.195 119.367C495.255 120.047 497.425 113.637 497.545 113.277C497.545 113.267 497.555 113.277 497.555 113.277C497.565 113.707 497.895 122.537 488.895 122.537C484.225 122.537 481.815 118.717 481.815 115.407C481.815 110.497 486.585 105.617 493.325 105.357C497.095 105.207 499.585 106.107 501.525 108.047C505.495 112.017 504.355 119.457 501.135 123.127C496.035 128.957 488.875 130.437 482.195 127.447C475.515 124.457 473.125 115.787 477.175 108.537C478.665 105.867 484.065 99.927 493.355 99.927C505.145 99.927 511.125 108.287 510.045 118.107C509.215 125.627 504.645 131.077 502.535 133.377C493.225 143.497 479.555 145.507 470.935 140.247C466.195 137.357 463.435 132.157 464.045 126.277C464.575 130.527 466.685 134.197 470.215 136.597C477.255 141.397 489.035 142.057 497.555 132.697C488.995 139.087 479.005 138.987 472.175 134.547C465.905 130.467 464.185 122.317 467.255 114.257C465.715 121.437 468.185 128.097 473.625 131.567C482.095 136.977 494.435 133.867 502.205 125.157C504.855 122.187 506.375 118.187 506.325 114.527C506.245 108.437 501.995 102.967 493.425 102.967C484.625 102.967 478.585 109.767 478.585 115.427C478.585 121.717 482.895 125.297 488.525 125.297C494.065 125.297 500.595 121.787 500.595 114.297Z" fill="white"></path><defs><linearGradient id="paint0_linear_1905_26398" x1="377.731" y1="52.4912" x2="422.727" y2="48.5546" gradientUnits="userSpaceOnUse"><stop stop-color="#0085CC"></stop><stop offset="0.4253" stop-color="#0083CA"></stop><stop offset="0.5785" stop-color="#007EC3"></stop><stop offset="0.6877" stop-color="#0074B8"></stop><stop offset="0.7761" stop-color="#0066A7"></stop><stop offset="0.8517" stop-color="#005491"></stop><stop offset="0.9175" stop-color="#003F76"></stop><stop offset="0.9551" stop-color="#002F63"></stop></linearGradient><linearGradient id="paint1_linear_1905_26398" x1="377.716" y1="52.4275" x2="422.712" y2="48.4909" gradientUnits="userSpaceOnUse"><stop stop-color="#0085CC"></stop><stop offset="0.4253" stop-color="#0083CA"></stop><stop offset="0.5785" stop-color="#007EC3"></stop><stop offset="0.6877" stop-color="#0074B8"></stop><stop offset="0.7761" stop-color="#0066A7"></stop><stop offset="0.8517" stop-color="#005491"></stop><stop offset="0.9175" stop-color="#003F76"></stop><stop offset="0.9551" stop-color="#002F63"></stop></linearGradient></defs></svg>